<?xml version="1.0" encoding="utf-8"?>
<!-- Generator: Adobe Illustrator 27.5.0, SVG Export Plug-In . SVG Version: 6.00 Build 0)  -->
<svg version="1.1" xmlns="http://www.w3.org/2000/svg" xmlns:xlink="http://www.w3.org/1999/xlink" x="0px" y="0px"
	 viewBox="0 0 3710 3710" style="enable-background:new 0 0 3710 3710;" xml:space="preserve">
<g id="Background">
	<g>
		<g>
			<rect style="fill:#FFFFFF;" width="3710" height="3710"/>
		</g>
	</g>
</g>
<g id="Illustration">
	<g>
		<linearGradient id="SVGID_1_" gradientUnits="userSpaceOnUse" x1="3558.3062" y1="4025.4885" x2="1117.7522" y2="994.4735">
			<stop  offset="0" style="stop-color:#DAE3FE"/>
			<stop  offset="1" style="stop-color:#E9EFFD"/>
		</linearGradient>
		<path style="fill:url(#SVGID_1_);" d="M2886.894,2830.166c-56.059,59.016-109.1,97.075-151.008,127.144
			c-492.615,353.457-1075.508,250.426-1199.39,225.265c-182.934-37.155-536.541-108.975-792.193-409.616
			c-386.78-454.845-326.552-1171.441-26.54-1644.475c54.877-86.526,344.753-566.766,933.925-643.781
			c356.561-46.609,772.196,47.396,1073.187,299.567C3356.684,1313.598,3311.706,2382.938,2886.894,2830.166z"/>
		<g>
			<path style="fill:#91B3FA;" d="M1791.336,2047.168c0,0-16.778-355.615-187.046-439.016
				c-170.266-83.401-485.389-120.718-533.26-629.657c-28.026-297.956-44.681-427.915-53.672-484.46
				c-3.507-22.057,14.943-41.373,37.128-38.805c156.936,18.171,668.552,102.51,798.423,438.394
				C2006.873,1291.819,1791.336,2047.168,1791.336,2047.168z"/>
			<path style="fill:#BDD0FB;" d="M1184.33,588.555c180.765,139.533,396.395,393.887,520.229,654.763
				c16.59,43.265,62.61,134.511,91.565,300.381c25.158,138.267,28.035,286.058,16.459,384.847
				c-0.732,6.246-6.388,10.715-12.634,9.983c-10.739-1.257-10.139-12.754-10.018-12.401
				c9.298-168.037-14.199-374.696-75.903-558.285c-78.171-225.255-231.952-438.106-388.067-616.81l-16.006-17.552
				c-120.644-134.126-143.993-133.519-134.36-144.15C1177.87,586.819,1181.689,586.527,1184.33,588.555z"/>
		</g>
		<g>
			<path style="fill:#91B3FA;" d="M2097.487,1949.782c32.58-60.672,94.845-107.13,137.222-161.389
				c134.647-172.404,266.182-408.995,424.385-440.628c131.668-26.327,410.033,190.486,499.711,263.96
				c11.206,9.181,6.682,27.253-7.537,30.03c-70.097,13.685-224.935,51.783-304.501,132.534
				c-104.874,106.436-268.919,120.228-388.081,82.556c-57.825-18.281-117.352-34.323-177.363-16.357
				c-35.198,10.538-66.795,30.732-95.789,52.818C2164.133,1909.611,2127.49,1966.469,2097.487,1949.782z"/>
			<path style="fill:#BDD0FB;" d="M2989.025,1587.212c-130.243-65.161-299.037-82.765-428.694-12.244l-12.3,6.769
				c-28.612,16-210.219,141.804-337.329,259.066c-1.583,1.462-1.684,3.932-0.222,5.516c2.484,2.691,5.86,0.188,5.406,0.323
				c78.078-62.772,182.651-139.265,263.167-195.185c87.146-61.415,147.083-102.498,269.989-105.58
				c135.71-1.465,237.68,47.118,237.351,47.015c1.59,0.68,3.431-0.058,4.111-1.648
				C2991.157,1589.715,2990.491,1587.95,2989.025,1587.212z"/>
		</g>
		<g>
			<path style="fill:#91B3FA;" d="M1638.756,2420.5c14.343,3.959-103.115-124.111-138.015-251.982
				c-34.9-127.871-112.47-342.171-252.929-449.737c-140.46-107.566-265.213-92.831-392.76,60.929
				c-106.289,128.133-175.203,196.146-220.052,215.816c-11.105,4.87-14.157,19.282-6.222,28.452
				c42.235,48.806,155.201,157.414,296.052,117.135c179.665-51.378,374.473-218.219,463.428-134.184
				c88.955,84.034,92.436,141.206,104.771,187.571C1505.364,2240.866,1543.842,2394.301,1638.756,2420.5z"/>
			<path style="fill:#BDD0FB;" d="M941.507,1926.893c44.075-65.741,123.436-138.25,205.021-145.867
				c107.002-6.017,190.984,47.902,251.069,142.404c24.247,40.403,35.393,62.365,55.799,113.935c1.63,4.117-4.389,6.775-6.352,2.836
				c-11.824-23.731-23.847-48.658-39.17-73.805c-92.958-163.537-214.427-161.673-219.739-164.272
				c-8.601,2.796-70.647-25.415-182.186,70.367c-20.796,18.033-40.565,37.746-58.597,58.662l-0.1,0.116
				c-1.305,1.514-3.589,1.683-5.103,0.378C940.749,1930.439,940.5,1928.391,941.507,1926.893z"/>
		</g>
		<g>
			<g style="opacity:0.3;">
				<path style="fill:#91B3FA;" d="M1077.555,3019.258c-4.338,1.449-9.16-0.585-11.093-4.84
					c-4.231-9.304-8.119-18.932-11.559-28.613c-1.673-4.71,0.787-9.885,5.496-11.558c0.057-0.019,0.112-0.037,0.168-0.056
					c4.663-1.557,9.736,0.9,11.389,5.554c3.267,9.198,6.962,18.342,10.98,27.181c2.069,4.548,0.058,9.915-4.493,11.983
					C1078.151,3019.044,1077.854,3019.158,1077.555,3019.258z M1053.138,2944.303c-0.335,0.112-0.682,0.206-1.038,0.28
					c-4.893,1.015-9.684-2.128-10.7-7.021c-2.084-10.051-3.76-20.292-4.978-30.434c-0.597-4.962,2.926-9.451,7.904-10.067
					c4.962-0.595,9.467,2.946,10.063,7.905c1.159,9.641,2.751,19.368,4.734,28.921
					C1060.064,2938.424,1057.427,2942.871,1053.138,2944.303z M1045.832,2865.837c-0.955,0.319-1.981,0.483-3.046,0.462
					c-4.996-0.102-8.967-4.231-8.868-9.228c0.202-10.241,0.854-20.603,1.937-30.794c0.531-4.97,4.99-8.565,9.954-8.043
					c4.969,0.528,8.57,4.986,8.042,9.955c-1.029,9.678-1.647,19.515-1.841,29.242
					C1051.933,2861.362,1049.359,2864.659,1045.832,2865.837z M1056.257,2787.69c-1.579,0.527-3.322,0.625-5.057,0.191
					c-4.847-1.213-7.793-6.129-6.58-10.976c2.493-9.944,5.443-19.899,8.771-29.589c1.627-4.721,6.771-7.236,11.499-5.618
					c4.725,1.623,7.24,6.772,5.618,11.499c-3.161,9.202-5.966,18.657-8.331,28.107
					C1061.396,2784.416,1059.092,2786.743,1056.257,2787.69z M1083.847,2713.832c-2.215,0.74-4.712,0.627-6.957-0.513
					c-4.459-2.26-6.24-7.705-3.979-12.161c4.624-9.12,9.703-18.173,15.1-26.899c2.625-4.253,8.201-5.571,12.454-2.941
					c4.25,2.628,5.566,8.203,2.939,12.457c-5.13,8.294-9.958,16.898-14.352,25.565
					C1087.929,2711.552,1086.026,2713.104,1083.847,2713.832z M1127.084,2647.921c-2.868,0.958-6.15,0.459-8.65-1.613
					c-3.847-3.191-4.38-8.893-1.192-12.742c6.536-7.884,13.494-15.589,20.678-22.892c3.507-3.564,9.234-3.609,12.798-0.104
					c3.562,3.502,3.609,9.233,0.105,12.795c-6.827,6.941-13.437,14.258-19.647,21.751
					C1130.058,2646.466,1128.632,2647.405,1127.084,2647.921z M1434.765,2522.453c-1.188,0.397-2.476,0.552-3.803,0.413
					c-9.669-1.012-19.513-1.615-29.256-1.789c-4.996-0.09-8.974-4.214-8.883-9.208c0.088-4.997,4.211-8.975,9.209-8.885
					c10.261,0.184,20.629,0.817,30.811,1.881c4.971,0.52,8.579,4.972,8.058,9.941
					C1440.522,2518.451,1438.027,2521.364,1434.765,2522.453z M1183.817,2593.267c-3.561,1.189-7.634,0.068-10.046-3.077
					c-3.043-3.966-2.293-9.646,1.671-12.688c8.126-6.235,16.624-12.192,25.256-17.706c4.223-2.67,9.807-1.46,12.498,2.754
					c2.69,4.211,1.456,9.806-2.755,12.499c-8.198,5.235-16.266,10.892-23.984,16.812
					C1185.636,2592.488,1184.744,2592.958,1183.817,2593.267z M1355.942,2523.146c-0.567,0.189-1.159,0.328-1.775,0.403
					c-9.656,1.179-19.389,2.794-28.929,4.791c-4.892,1.022-9.688-2.112-10.712-7.002c-1.022-4.891,2.101-9.708,7.002-10.712
					c10.038-2.101,20.28-3.799,30.44-5.042c4.961-0.606,9.475,2.925,10.081,7.884
					C1362.58,2517.811,1359.938,2521.812,1355.942,2523.146z M1251.336,2552.656c-4.332,1.447-9.146-0.579-11.086-4.824
					c-2.077-4.546-0.076-9.913,4.469-11.994c9.307-4.252,18.922-8.16,28.581-11.61c0.059-0.023,0.121-0.044,0.182-0.064
					c4.656-1.555,9.723,0.893,11.383,5.537c1.682,4.708-0.768,9.886-5.476,11.566c-9.174,3.28-18.306,6.993-27.148,11.034
					C1251.942,2552.434,1251.64,2552.554,1251.336,2552.656z"/>
				<path style="fill:#91B3FA;" d="M1497.103,2534.752c-1.69,0.564-3.564,0.639-5.404,0.098c-4.477-1.315-9.055-2.554-13.61-3.694
					c-4.848-1.209-7.799-6.123-6.587-10.97c1.209-4.849,6.123-7.806,10.972-6.586c4.791,1.195,9.606,2.501,14.317,3.883
					c4.794,1.406,7.544,6.436,6.137,11.228C1502.062,2531.669,1499.819,2533.845,1497.103,2534.752z"/>
			</g>
			<g style="opacity:0.3;">
				<path style="fill:#91B3FA;" d="M1710.484,2709.613c-4.142,1.383-8.791-0.403-10.878-4.398c-2.158-4.135-4.44-8.296-6.782-12.362
					c-2.494-4.332-1.004-9.864,3.326-12.358c4.349-2.503,9.865-1.003,12.358,3.326c2.464,4.282,4.868,8.663,7.142,13.017
					c2.313,4.43,0.596,9.896-3.833,12.21C1711.381,2709.276,1710.934,2709.463,1710.484,2709.613z"/>
				<path style="fill:#91B3FA;" d="M1510.176,3207.129c-3.949,1.319-7.936,2.575-11.959,3.77c-4.791,1.421-9.828-1.309-11.251-6.099
					c-1.423-4.791,1.325-9.852,6.097-11.252c9.284-2.758,18.435-5.885,27.301-9.337c4.664-1.807,9.901,0.49,11.715,5.146
					c1.815,4.659-0.491,9.906-5.148,11.718C1521.449,3203.211,1515.811,3205.247,1510.176,3207.129z M1451.598,3221.337
					c-0.479,0.16-0.981,0.282-1.498,0.362c-9.978,1.54-20.133,2.673-30.18,3.367c-4.984,0.345-9.306-3.417-9.651-8.4
					c-0.344-4.987,3.423-9.323,8.403-9.652c9.543-0.661,19.189-1.739,28.671-3.199c4.938-0.762,9.559,2.625,10.321,7.561
					C1458.346,3215.8,1455.704,3219.966,1451.598,3221.337z M1570,3180.759c-4.047,1.352-8.608-0.319-10.761-4.18
					c-2.433-4.368-0.865-9.877,3.5-12.312c8.352-4.652,16.616-9.727,24.567-15.087c4.149-2.787,9.769-1.697,12.561,2.446
					c2.793,4.146,1.698,9.77-2.447,12.563c-8.373,5.643-17.078,10.988-25.872,15.889
					C1571.045,3180.357,1570.526,3180.583,1570,3180.759z M1374.076,3224.648c-1.09,0.364-2.267,0.522-3.483,0.44
					c-10.063-0.69-20.219-1.819-30.182-3.354c-4.938-0.762-8.324-5.381-7.562-10.32c0.761-4.942,5.378-8.329,10.321-7.565
					c9.46,1.458,19.103,2.53,28.661,3.185c4.986,0.339,8.75,4.661,8.408,9.646
					C1379.981,3220.447,1377.45,3223.521,1374.076,3224.648z M1633.126,3135.752c-3.319,1.109-7.128,0.227-9.612-2.547
					c-3.334-3.723-3.018-9.445,0.705-12.779c7.119-6.372,14.065-13.142,20.647-20.117c3.429-3.635,9.157-3.803,12.792-0.37
					c3.633,3.43,3.799,9.154,0.37,12.789c-6.929,7.345-14.242,14.471-21.738,21.182
					C1635.343,3134.759,1634.262,3135.373,1633.126,3135.752z M1684.849,3077.982c-2.653,0.886-5.68,0.533-8.131-1.216
					c-4.067-2.905-5.01-8.556-2.105-12.623c5.569-7.8,10.875-15.926,15.77-24.149c2.55-4.299,8.101-5.709,12.402-3.151
					c4.295,2.557,5.704,8.108,3.15,12.405c-5.151,8.655-10.734,17.205-16.596,25.412
					C1688.186,3076.276,1686.599,3077.398,1684.849,3077.982z M1722.747,3010.311c-2.018,0.674-4.279,0.643-6.394-0.253
					c-4.601-1.948-6.751-7.26-4.801-11.861c3.743-8.833,7.154-17.917,10.137-27.008c1.558-4.746,6.666-7.335,11.42-5.774
					c4.747,1.56,7.333,6.67,5.774,11.42c-3.141,9.564-6.729,19.128-10.667,28.422
					C1727.162,3007.745,1725.125,3009.517,1722.747,3010.311z M1744.984,2935.99c-1.398,0.467-2.929,0.598-4.482,0.315
					c-4.916-0.896-8.174-5.606-7.278-10.523c1.72-9.432,3.056-19.042,3.97-28.567c0.478-4.974,4.904-8.621,9.87-8.145
					c4.976,0.477,8.621,4.898,8.143,9.872c-0.963,10.033-2.369,20.154-4.179,30.083
					C1750.413,2932.391,1748.013,2934.978,1744.984,2935.99z M1750.364,2858.57c-0.786,0.262-1.623,0.419-2.492,0.456
					c-4.992,0.21-9.211-3.669-9.419-8.66c-0.402-9.555-1.216-19.218-2.424-28.727c-0.629-4.958,2.895-9.486,7.837-10.115
					c4.958-0.631,9.488,2.88,10.117,7.838c1.271,10.01,2.129,20.184,2.55,30.242
					C1756.707,2853.728,1754.092,2857.325,1750.364,2858.57z M1738.613,2781.912c-0.176,0.059-0.356,0.111-0.537,0.161
					c-4.827,1.291-9.788-1.576-11.078-6.403c-1.823-6.815-3.877-13.652-6.108-20.331c-0.807-2.417-1.642-4.822-2.496-7.208
					c-1.686-4.706,0.762-9.887,5.467-11.571c4.73-1.799,9.884,0.761,11.569,5.464c0.901,2.513,1.776,5.038,2.625,7.583
					c2.346,7.024,4.507,14.221,6.424,21.388C1745.722,2775.64,1743.113,2780.409,1738.613,2781.912z"/>
				<path style="fill:#91B3FA;" d="M1297.522,3210.739c-1.707,0.57-3.597,0.639-5.449,0.087c-4.694-1.402-9.447-2.93-14.127-4.542
					c-4.726-1.626-7.238-6.776-5.611-11.5c1.629-4.725,6.772-7.24,11.501-5.611c4.446,1.53,8.961,2.981,13.417,4.314
					c4.786,1.427,7.51,6.469,6.08,11.258C1302.455,3207.679,1300.221,3209.837,1297.522,3210.739z"/>
			</g>
			<g>
				<path style="fill:#91B3FA;" d="M1275.857,3107.32c1.524,0.964,3.494,0.855,4.902-0.272l40.195-32.154
					c22.71,7.879,46.84,12.194,71.578,12.41l27.037,43.761c0.948,1.536,2.766,2.299,4.526,1.903l60.236-13.556
					c1.761-0.397,3.075-1.866,3.275-3.658l5.682-51.126c22.26-10.793,42.215-25.029,59.359-41.879l50.095,11.834
					c1.756,0.415,3.581-0.33,4.546-1.855l33.007-52.178c0.965-1.526,0.856-3.495-0.272-4.903l-32.154-40.195
					c7.88-22.71,12.194-46.841,12.41-71.578l43.762-27.038c1.535-0.948,2.299-2.765,1.903-4.526l-13.556-60.236
					c-0.396-1.76-1.865-3.075-3.659-3.274l-51.126-5.683c-10.793-22.26-25.028-42.215-41.878-59.359l11.834-50.096
					c0.414-1.755-0.331-3.581-1.855-4.545l-52.179-33.007c-1.525-0.966-3.494-0.856-4.903,0.271l-40.195,32.154
					c-22.71-7.88-46.84-12.195-71.577-12.41l-27.038-43.763c-0.948-1.534-2.765-2.299-4.526-1.903l-60.236,13.557
					c-1.761,0.396-3.075,1.865-3.275,3.659l-5.682,51.126c-22.26,10.792-42.215,25.029-59.36,41.878l-50.094-11.834
					c-1.756-0.416-3.583,0.33-4.547,1.855l-33.007,52.179c-0.965,1.525-0.855,3.493,0.271,4.903l32.154,40.195
					c-7.88,22.71-12.194,46.841-12.41,71.578l-43.762,27.038c-1.534,0.948-2.299,2.766-1.902,4.526l13.556,60.235
					c0.396,1.76,1.865,3.076,3.658,3.275l51.126,5.683c10.793,22.259,25.029,42.214,41.878,59.359l-11.833,50.095
					c-0.415,1.756,0.33,3.581,1.855,4.547L1275.857,3107.32z"/>
				
					<linearGradient id="SVGID_00000116919856175051029920000005620365830924228752_" gradientUnits="userSpaceOnUse" x1="1332.6375" y1="2861.696" x2="1456.7469" y2="2861.696">
					<stop  offset="0" style="stop-color:#DAE3FE"/>
					<stop  offset="1" style="stop-color:#E9EFFD"/>
				</linearGradient>
				<path style="fill:url(#SVGID_00000116919856175051029920000005620365830924228752_);" d="M1414.314,2920.599
					c-28.695,9.583-60.928-3.073-74.991-30.85c-15.457-30.534-3.193-67.945,27.338-83.403c14.791-7.492,31.612-8.769,47.362-3.605
					c15.753,5.162,28.553,16.151,36.039,30.942c15.458,30.534,3.193,67.945-27.338,83.403
					C1419.971,2918.479,1417.159,2919.649,1414.314,2920.599z M1379.712,2816.543c-2.216,0.74-4.39,1.645-6.513,2.719
					c-23.408,11.85-32.81,40.539-20.961,63.946c11.852,23.409,40.536,32.824,63.948,20.962c23.409-11.85,32.81-40.538,20.961-63.945
					c-5.742-11.342-15.554-19.766-27.633-23.725C1399.697,2813.282,1389.336,2813.329,1379.712,2816.543z"/>
				
					<linearGradient id="SVGID_00000115494827127132995730000008867857354433404547_" gradientUnits="userSpaceOnUse" x1="1242.6819" y1="2860.5371" x2="1547.9557" y2="2860.5371">
					<stop  offset="0" style="stop-color:#DAE3FE"/>
					<stop  offset="1" style="stop-color:#E9EFFD"/>
				</linearGradient>
				<path style="fill:url(#SVGID_00000115494827127132995730000008867857354433404547_);" d="M1443.912,3005.219
					c-4.928,1.646-9.968,3.053-15.106,4.21l0,0c-1.617,0.365-3.241,0.702-4.869,1.015c-8.03,1.538-16.169,2.434-24.292,2.676
					c-0.111,0.003-0.221,0.007-0.332,0.01c-0.314,0.008-0.628,0.016-0.943,0.021c-0.612,0.014-1.224,0.021-1.835,0.028
					c-1.608,0.016-2.981-1.02-3.466-2.468c-0.118-0.352-0.182-0.729-0.186-1.119c-0.019-1.999,1.591-3.628,3.587-3.65
					c10.286-0.092,20.63-1.296,30.746-3.575c50.255-11.302,88.567-47.529,104.866-92.727c9.069-25.138,11.325-53.054,5.033-81.004
					c-1.102-4.902-2.444-9.711-4.015-14.411c-10.569-31.634-31.521-58.448-60.088-76.517
					c-32.813-20.758-71.747-27.495-109.626-18.97c-78.229,17.614-127.498,95.538-109.9,173.731c1.085,4.821,2.41,9.57,3.967,14.226
					c6.743,20.178,17.826,38.657,32.519,54.071c0.379,0.399,0.65,0.86,0.813,1.35c0.43,1.287,0.114,2.768-0.936,3.767
					c-1.452,1.376-3.737,1.33-5.118-0.124c-15.425-16.183-27.064-35.583-34.142-56.767c-1.634-4.887-3.025-9.871-4.165-14.931
					c-18.477-82.096,33.305-163.915,115.371-182.386c39.767-8.95,80.638-1.876,115.086,19.916
					c29.991,18.969,51.986,47.119,63.082,80.328c1.648,4.935,3.056,9.984,4.215,15.127c8.949,39.77,1.878,80.642-19.913,115.089
					C1505.29,2972.129,1477.13,2994.126,1443.912,3005.219z"/>
			</g>
		</g>
		<g>
			<g style="opacity:0.3;">
				<path style="fill:#91B3FA;" d="M1689.13,2681.633c-3.342,1.116-7.056-0.451-8.546-3.729c-3.26-7.168-6.255-14.585-8.905-22.042
					c-1.289-3.629,0.606-7.615,4.234-8.904c0.044-0.015,0.086-0.029,0.129-0.043c3.593-1.2,7.501,0.693,8.774,4.278
					c2.517,7.086,5.363,14.13,8.459,20.94c1.594,3.504,0.045,7.638-3.461,9.231
					C1689.589,2681.468,1689.36,2681.556,1689.13,2681.633z M1670.32,2623.89c-0.258,0.086-0.526,0.158-0.799,0.216
					c-3.769,0.782-7.461-1.64-8.243-5.409c-1.606-7.743-2.896-15.632-3.835-23.445c-0.46-3.823,2.254-7.281,6.089-7.755
					c3.823-0.458,7.293,2.27,7.752,6.089c0.893,7.427,2.12,14.921,3.647,22.28C1675.656,2619.361,1673.624,2622.786,1670.32,2623.89
					z M1664.691,2563.441c-0.736,0.246-1.526,0.372-2.347,0.356c-3.849-0.078-6.908-3.26-6.831-7.109
					c0.156-7.89,0.658-15.872,1.492-23.723c0.409-3.829,3.844-6.598,7.669-6.196c3.828,0.407,6.602,3.841,6.195,7.669
					c-0.793,7.456-1.269,15.034-1.418,22.527C1669.392,2559.994,1667.408,2562.534,1664.691,2563.441z M1672.723,2503.239
					c-1.216,0.406-2.559,0.481-3.896,0.147c-3.734-0.935-6.003-4.721-5.069-8.455c1.92-7.661,4.193-15.33,6.757-22.795
					c1.253-3.637,5.216-5.575,8.858-4.328c3.64,1.25,5.578,5.217,4.328,8.858c-2.435,7.089-4.596,14.373-6.418,21.653
					C1676.682,2500.717,1674.907,2502.51,1672.723,2503.239z M1693.977,2446.341c-1.706,0.57-3.63,0.483-5.36-0.395
					c-3.435-1.741-4.807-5.936-3.066-9.369c3.562-7.026,7.475-14,11.632-20.722c2.022-3.276,6.318-4.292,9.594-2.266
					c3.274,2.025,4.288,6.319,2.264,9.596c-3.952,6.39-7.671,13.018-11.057,19.695
					C1697.122,2444.584,1695.656,2445.78,1693.977,2446.341z M1727.286,2395.565c-2.21,0.738-4.738,0.354-6.663-1.243
					c-2.964-2.458-3.375-6.851-0.919-9.816c5.035-6.074,10.395-12.01,15.93-17.636c2.702-2.745,7.114-2.781,9.859-0.08
					c2.744,2.698,2.78,7.113,0.081,9.857c-5.259,5.348-10.351,10.984-15.136,16.756
					C1729.577,2394.444,1728.478,2395.167,1727.286,2395.565z M1964.315,2298.908c-0.916,0.306-1.908,0.425-2.93,0.318
					c-7.449-0.779-15.032-1.244-22.538-1.378c-3.849-0.07-6.914-3.246-6.843-7.094c0.068-3.85,3.244-6.914,7.094-6.845
					c7.905,0.142,15.892,0.63,23.736,1.449c3.83,0.4,6.609,3.83,6.208,7.659C1968.75,2295.825,1966.828,2298.068,1964.315,2298.908z
					 M1770.992,2353.461c-2.743,0.916-5.881,0.052-7.739-2.371c-2.344-3.056-1.767-7.431,1.287-9.774
					c6.26-4.803,12.807-9.393,19.456-13.64c3.253-2.057,7.555-1.125,9.628,2.121c2.072,3.244,1.122,7.555-2.123,9.629
					c-6.316,4.033-12.531,8.391-18.476,12.951C1772.393,2352.86,1771.706,2353.222,1770.992,2353.461z M1903.592,2299.442
					c-0.436,0.146-0.893,0.252-1.368,0.31c-7.439,0.908-14.937,2.152-22.286,3.691c-3.769,0.788-7.464-1.627-8.252-5.394
					c-0.787-3.768,1.619-7.479,5.394-8.252c7.733-1.618,15.623-2.927,23.451-3.885c3.822-0.467,7.299,2.253,7.766,6.074
					C1908.706,2295.331,1906.67,2298.414,1903.592,2299.442z M1823.006,2322.175c-3.337,1.114-7.046-0.446-8.54-3.717
					c-1.6-3.502-0.058-7.637,3.443-9.24c7.17-3.276,14.577-6.287,22.018-8.944c0.045-0.018,0.093-0.034,0.14-0.05
					c3.587-1.198,7.49,0.688,8.769,4.266c1.296,3.627-0.592,7.616-4.218,8.91c-7.067,2.527-14.103,5.387-20.914,8.5
					C1823.473,2322.004,1823.24,2322.097,1823.006,2322.175z"/>
				<path style="fill:#91B3FA;" d="M2012.339,2308.382c-1.302,0.435-2.745,0.492-4.163,0.076c-3.449-1.013-6.976-1.968-10.485-2.846
					c-3.734-0.932-6.008-4.717-5.074-8.451c0.931-3.736,4.717-6.013,8.453-5.073c3.691,0.921,7.4,1.927,11.03,2.991
					c3.693,1.083,5.811,4.958,4.728,8.65C2016.159,2306.007,2014.431,2307.684,2012.339,2308.382z"/>
			</g>
			<g style="opacity:0.3;">
				<path style="fill:#91B3FA;" d="M2176.722,2443.091c-3.191,1.066-6.773-0.311-8.381-3.388c-1.662-3.186-3.42-6.391-5.224-9.523
					c-1.921-3.337-0.774-7.599,2.562-9.52c3.351-1.929,7.6-0.773,9.52,2.563c1.898,3.299,3.75,6.674,5.502,10.027
					c1.781,3.413,0.459,7.624-2.953,9.406C2177.413,2442.831,2177.069,2442.975,2176.722,2443.091z"/>
				<path style="fill:#91B3FA;" d="M2022.41,2826.364c-3.042,1.016-6.114,1.984-9.213,2.905c-3.691,1.095-7.571-1.008-8.667-4.699
					c-1.096-3.69,1.021-7.59,4.697-8.668c7.152-2.124,14.202-4.533,21.032-7.193c3.593-1.392,7.628,0.378,9.025,3.965
					c1.398,3.59-0.378,7.631-3.966,9.027C2031.094,2823.345,2026.751,2824.914,2022.41,2826.364z M1977.283,2837.309
					c-0.369,0.123-0.755,0.218-1.154,0.279c-7.687,1.186-15.51,2.059-23.25,2.594c-3.84,0.266-7.169-2.632-7.435-6.471
					c-0.265-3.841,2.637-7.182,6.474-7.436c7.352-0.509,14.782-1.34,22.088-2.464c3.804-0.587,7.364,2.022,7.951,5.825
					C1982.482,2833.044,1980.446,2836.253,1977.283,2837.309z M2068.496,2806.049c-3.117,1.041-6.632-0.245-8.29-3.22
					c-1.874-3.365-0.667-7.609,2.696-9.484c6.434-3.584,12.801-7.493,18.926-11.623c3.196-2.147,7.526-1.307,9.677,1.884
					c2.152,3.194,1.308,7.527-1.885,9.678c-6.45,4.347-13.157,8.465-19.931,12.24
					C2069.302,2805.74,2068.902,2805.914,2068.496,2806.049z M1917.562,2839.86c-0.839,0.28-1.746,0.402-2.683,0.339
					c-7.752-0.531-15.576-1.401-23.251-2.584c-3.804-0.587-6.412-4.146-5.826-7.95c0.586-3.807,4.143-6.416,7.951-5.828
					c7.288,1.123,14.717,1.949,22.079,2.453c3.841,0.262,6.741,3.591,6.478,7.431
					C1922.111,2836.624,1920.161,2838.991,1917.562,2839.86z M2117.127,2771.377c-2.557,0.854-5.491,0.175-7.405-1.962
					c-2.569-2.868-2.325-7.276,0.543-9.845c5.484-4.909,10.835-10.124,15.906-15.498c2.642-2.8,7.054-2.93,9.855-0.285
					c2.799,2.642,2.927,7.052,0.285,9.852c-5.337,5.658-10.971,11.148-16.746,16.318
					C2118.835,2770.612,2118.003,2771.085,2117.127,2771.377z M2156.973,2726.873c-2.044,0.683-4.376,0.411-6.264-0.937
					c-3.133-2.238-3.859-6.592-1.621-9.725c4.291-6.009,8.378-12.269,12.149-18.604c1.964-3.312,6.241-4.398,9.554-2.427
					c3.309,1.969,4.394,6.246,2.426,9.556c-3.969,6.667-8.27,13.254-12.785,19.577
					C2159.544,2725.558,2158.322,2726.422,2156.973,2726.873z M2186.169,2674.74c-1.555,0.52-3.297,0.496-4.925-0.195
					c-3.544-1.5-5.201-5.592-3.699-9.137c2.883-6.805,5.511-13.803,7.809-20.806c1.2-3.656,5.135-5.651,8.798-4.448
					c3.657,1.202,5.649,5.138,4.448,8.798c-2.42,7.368-5.184,14.736-8.217,21.896C2189.57,2672.763,2188,2674.128,2186.169,2674.74z
					 M2203.3,2617.485c-1.077,0.36-2.256,0.461-3.453,0.243c-3.788-0.69-6.297-4.319-5.607-8.106
					c1.325-7.267,2.354-14.67,3.058-22.007c0.368-3.832,3.778-6.642,7.604-6.274c3.833,0.368,6.642,3.773,6.273,7.605
					c-0.741,7.729-1.825,15.526-3.219,23.175C2207.482,2614.713,2205.633,2616.706,2203.3,2617.485z M2207.444,2557.843
					c-0.606,0.202-1.25,0.323-1.92,0.351c-3.846,0.162-7.096-2.826-7.256-6.671c-0.31-7.361-0.937-14.805-1.867-22.13
					c-0.485-3.82,2.23-7.308,6.038-7.792c3.819-0.486,7.309,2.219,7.794,6.038c0.979,7.711,1.64,15.549,1.964,23.298
					C2212.331,2554.113,2210.316,2556.884,2207.444,2557.843z M2198.391,2498.788c-0.136,0.045-0.274,0.086-0.414,0.124
					c-3.718,0.995-7.541-1.214-8.534-4.933c-1.404-5.25-2.987-10.517-4.705-15.662c-0.622-1.862-1.265-3.714-1.923-5.553
					c-1.298-3.626,0.587-7.617,4.212-8.914c3.644-1.386,7.614,0.586,8.913,4.209c0.694,1.936,1.368,3.881,2.022,5.841
					c1.807,5.411,3.472,10.955,4.949,16.477C2203.868,2493.956,2201.859,2497.63,2198.391,2498.788z"/>
				<path style="fill:#91B3FA;" d="M1858.587,2829.144c-1.315,0.439-2.771,0.492-4.198,0.067c-3.616-1.08-7.278-2.257-10.883-3.499
					c-3.641-1.253-5.576-5.22-4.323-8.86c1.255-3.64,5.217-5.577,8.86-4.323c3.425,1.179,6.903,2.297,10.336,3.323
					c3.687,1.1,5.786,4.983,4.684,8.673C1862.387,2826.787,1860.666,2828.45,1858.587,2829.144z"/>
			</g>
			<g>
				<path style="fill:#91B3FA;" d="M1841.897,2749.474c1.174,0.743,2.692,0.659,3.777-0.209l30.965-24.771
					c17.495,6.07,36.085,9.394,55.141,9.561l20.829,33.713c0.731,1.183,2.131,1.771,3.487,1.466l46.404-10.443
					c1.356-0.306,2.369-1.438,2.523-2.818l4.378-39.386c17.148-8.315,32.521-19.282,45.729-32.262l38.592,9.117
					c1.353,0.319,2.759-0.254,3.502-1.429l25.428-40.197c0.743-1.176,0.659-2.692-0.209-3.777l-24.77-30.965
					c6.07-17.495,9.394-36.085,9.56-55.141l33.713-20.829c1.182-0.73,1.771-2.131,1.466-3.487l-10.444-46.404
					c-0.305-1.356-1.437-2.369-2.819-2.522l-39.386-4.378c-8.314-17.148-19.281-32.521-32.261-45.729l9.116-38.593
					c0.319-1.352-0.255-2.759-1.429-3.502l-40.197-25.427c-1.175-0.744-2.692-0.659-3.777,0.209l-30.965,24.771
					c-17.495-6.071-36.085-9.395-55.141-9.561l-20.829-33.714c-0.73-1.182-2.13-1.771-3.487-1.466l-46.404,10.444
					c-1.356,0.305-2.369,1.437-2.523,2.819l-4.378,39.386c-17.149,8.314-32.521,19.282-45.729,32.262l-38.592-9.116
					c-1.353-0.32-2.76,0.254-3.503,1.429l-25.428,40.197c-0.743,1.175-0.659,2.691,0.209,3.777l24.77,30.965
					c-6.07,17.495-9.394,36.085-9.56,55.141l-33.713,20.829c-1.182,0.73-1.771,2.131-1.465,3.487l10.443,46.403
					c0.305,1.356,1.437,2.369,2.818,2.523l39.386,4.377c8.315,17.148,19.282,32.521,32.262,45.729l-9.116,38.592
					c-0.32,1.353,0.254,2.759,1.429,3.503L1841.897,2749.474z"/>
				
					<linearGradient id="SVGID_00000016791189111946698070000013391516077721180845_" gradientUnits="userSpaceOnUse" x1="1885.6388" y1="2560.2515" x2="1981.2495" y2="2560.2515">
					<stop  offset="0" style="stop-color:#DAE3FE"/>
					<stop  offset="1" style="stop-color:#E9EFFD"/>
				</linearGradient>
				<path style="fill:url(#SVGID_00000016791189111946698070000013391516077721180845_);" d="M1948.56,2605.629
					c-22.106,7.383-46.938-2.368-57.771-23.766c-11.908-23.522-2.459-52.343,21.061-64.252c11.394-5.772,24.353-6.755,36.486-2.777
					c12.135,3.977,21.996,12.442,27.764,23.837c11.908,23.523,2.46,52.343-21.06,64.251
					C1952.918,2603.996,1950.752,2604.897,1948.56,2605.629z M1921.904,2525.467c-1.707,0.57-3.382,1.267-5.018,2.095
					c-18.033,9.129-25.276,31.23-16.148,49.262c9.13,18.034,31.228,25.287,49.263,16.149c18.033-9.129,25.276-31.23,16.148-49.262
					c-4.424-8.737-11.983-15.227-21.288-18.278C1937.3,2522.955,1929.318,2522.99,1921.904,2525.467z"/>
				
					<linearGradient id="SVGID_00000066504480220800625840000017275325092476816797_" gradientUnits="userSpaceOnUse" x1="1816.3395" y1="2559.3586" x2="2051.5144" y2="2559.3586">
					<stop  offset="0" style="stop-color:#DAE3FE"/>
					<stop  offset="1" style="stop-color:#E9EFFD"/>
				</linearGradient>
				<path style="fill:url(#SVGID_00000066504480220800625840000017275325092476816797_);" d="M1971.362,2670.818
					c-3.797,1.268-7.679,2.352-11.637,3.243l0,0c-1.245,0.281-2.497,0.541-3.751,0.782c-6.186,1.185-12.456,1.875-18.714,2.061
					c-0.085,0.003-0.171,0.005-0.256,0.008c-0.242,0.006-0.484,0.012-0.727,0.016c-0.471,0.011-0.943,0.016-1.414,0.021
					c-1.239,0.012-2.297-0.786-2.671-1.901c-0.091-0.271-0.14-0.562-0.143-0.862c-0.015-1.54,1.225-2.795,2.763-2.812
					c7.924-0.071,15.893-0.998,23.686-2.754c38.715-8.706,68.23-36.615,80.786-71.434c6.987-19.366,8.724-40.872,3.877-62.403
					c-0.849-3.776-1.883-7.481-3.093-11.102c-8.142-24.37-24.283-45.026-46.29-58.947c-25.278-15.991-55.272-21.181-84.453-14.614
					c-60.266,13.57-98.221,73.6-84.664,133.838c0.836,3.714,1.857,7.372,3.056,10.959c5.194,15.545,13.732,29.781,25.052,41.655
					c0.292,0.307,0.501,0.662,0.626,1.04c0.331,0.992,0.088,2.132-0.721,2.902c-1.119,1.06-2.879,1.025-3.943-0.095
					c-11.883-12.467-20.849-27.412-26.302-43.732c-1.259-3.765-2.33-7.604-3.208-11.503
					c-14.234-63.245,25.657-126.275,88.879-140.505c30.636-6.895,62.121-1.446,88.659,15.343
					c23.104,14.613,40.049,36.299,48.597,61.882c1.27,3.802,2.355,7.691,3.248,11.653c6.894,30.637,1.447,62.124-15.34,88.661
					C2018.646,2645.326,1996.952,2662.271,1971.362,2670.818z"/>
			</g>
		</g>
		<g>
			<g style="opacity:0.3;">
				<path style="fill:#91B3FA;" d="M1898.941,989.24c-1.916,1.079-4.385,0.823-6.041-0.792c-3.091-3.011-6.133-6.158-9.04-9.352
					c-1.889-2.076-1.738-5.288,0.338-7.181c2.072-1.901,5.292-1.737,7.181,0.338c2.77,3.044,5.67,6.043,8.619,8.917
					c2.01,1.956,2.05,5.175,0.093,7.188C1899.742,988.714,1899.354,989.007,1898.941,989.24z"/>
				<path style="fill:#91B3FA;" d="M1873.557,959.493c-2.245,1.264-5.127,0.648-6.642-1.501
					c-4.285-6.071-8.306-12.433-11.949-18.904c-0.767-1.362-1.521-2.738-2.266-4.125c-1.324-2.479-0.21-5.539,2.08-6.885
					c2.475-1.326,5.555-0.393,6.882,2.079c0.71,1.326,1.43,2.642,2.163,3.944c3.476,6.173,7.311,12.24,11.395,18.031
					c1.62,2.295,1.072,5.464-1.22,7.085C1873.853,959.315,1873.707,959.409,1873.557,959.493z M1848.639,912.962
					c-0.21,0.118-0.431,0.226-0.66,0.315c-2.62,1.014-5.565-0.285-6.58-2.904c-3.259-8.398-6.024-17.073-8.217-25.78
					c-0.688-2.724,0.979-5.485,3.687-6.172c2.725-0.685,5.484,0.963,6.172,3.686c2.094,8.307,4.733,16.581,7.839,24.591
					C1851.803,909.085,1850.807,911.742,1848.639,912.962z M1835.749,861.779c-0.562,0.317-1.194,0.53-1.873,0.616
					c-2.786,0.344-5.322-1.641-5.666-4.427c-1.095-8.927-1.647-18.022-1.63-27.027c0.004-2.811,2.278-5.077,5.094-5.073
					c2.806,0.004,5.078,2.285,5.074,5.091c-0.015,8.589,0.507,17.257,1.555,25.77C1838.56,858.834,1837.49,860.798,1835.749,861.779
					z M1835.836,808.99c-0.917,0.517-2.001,0.751-3.124,0.614c-2.785-0.352-4.762-2.896-4.41-5.681
					c1.127-8.941,2.819-17.887,5.031-26.595c0.693-2.721,3.464-4.361,6.179-3.673c2.721,0.689,4.366,3.455,3.676,6.179
					c-2.11,8.299-3.724,16.836-4.798,25.359C1838.181,806.856,1837.192,808.227,1835.836,808.99z M1848.813,757.826
					c-1.281,0.721-2.864,0.883-4.342,0.308c-2.615-1.017-3.909-3.963-2.893-6.581c3.266-8.385,7.078-16.65,11.335-24.562
					c1.327-2.479,4.412-3.401,6.885-2.07c2.473,1.331,3.4,4.415,2.07,6.884c-4.061,7.551-7.698,15.433-10.812,23.436
					C1850.612,756.38,1849.802,757.269,1848.813,757.826z M1873.812,711.367c-1.659,0.934-3.78,0.891-5.438-0.283
					c-2.289-1.622-2.827-4.794-1.206-7.086c5.205-7.341,10.918-14.426,16.98-21.053c1.907-2.071,5.112-2.212,7.184-0.319
					c2.071,1.893,2.214,5.111,0.32,7.18c-5.782,6.321-11.226,13.072-16.188,20.07
					C1875.015,710.513,1874.446,711.01,1873.812,711.367z M1909.402,672.441c-2.076,1.169-4.755,0.747-6.357-1.132
					c-1.821-2.136-1.566-5.345,0.57-7.169c6.825-5.82,14.104-11.286,21.637-16.251c2.375-1.508,5.502-0.893,7.044,1.452
					c1.545,2.344,0.895,5.495-1.447,7.042c-7.189,4.732-14.132,9.946-20.639,15.495
					C1909.954,672.096,1909.683,672.283,1909.402,672.441z M1977.858,633.155c-0.255,0.144-0.529,0.269-0.818,0.369
					c-6.995,2.451-13.977,5.329-20.756,8.553c-1.03,0.483-2.035,0.969-3.031,1.467c-2.517,1.247-5.566,0.223-6.814-2.293
					c-1.255-2.518-0.249-5.648,2.29-6.816c1.065-0.526,2.131-1.046,3.211-1.552c7.083-3.367,14.403-6.384,21.739-8.953
					c2.651-0.928,5.549,0.465,6.477,3.116C1980.984,629.407,1979.967,631.968,1977.858,633.155z"/>
			</g>
			<g style="opacity:0.3;">
				<path style="fill:#91B3FA;" d="M2156.503,1021.016c-2.418,1.362-5.491,0.528-6.89-1.88c-1.408-2.426-0.584-5.54,1.845-6.947
					c7.311-4.242,14.425-8.966,21.144-14.042c2.241-1.661,5.429-1.251,7.122,0.992c1.693,2.242,1.245,5.429-0.992,7.122
					c-7.049,5.319-14.505,10.275-22.168,14.721C2156.545,1020.993,2156.523,1021.005,2156.503,1021.016z M2133.265,1032.694
					c-0.16,0.09-0.323,0.17-0.495,0.244c-8.13,3.496-16.556,6.531-25.043,9.025c-2.695,0.788-5.518-0.75-6.309-3.444
					c-0.795-2.697,0.766-5.519,3.441-6.313c8.099-2.378,16.138-5.276,23.898-8.608c2.578-1.109,5.568,0.084,6.676,2.662
					C2136.471,1028.673,2135.497,1031.437,2133.265,1032.694z M2197.915,989.723c-1.964,1.106-4.5,0.801-6.143-0.893
					c-1.951-2.012-1.902-5.23,0.113-7.185c6.07-5.89,11.832-12.194,17.126-18.748c1.778-2.18,4.966-2.523,7.149-0.755
					c2.183,1.762,2.523,4.966,0.759,7.15c-5.551,6.868-11.594,13.478-17.958,19.649
					C2198.639,989.253,2198.287,989.513,2197.915,989.723z M2083.426,1047.3c-0.504,0.284-1.065,0.486-1.669,0.587
					c-8.738,1.439-17.654,2.351-26.496,2.71c-2.806,0.115-5.172-2.067-5.288-4.874c-0.111-2.797,2.071-5.165,4.872-5.284
					c8.432-0.344,16.929-1.215,25.262-2.585c2.769-0.454,5.386,1.422,5.841,4.191
					C2086.304,1044.21,2085.234,1046.281,2083.426,1047.3z M2230.531,949.349c-1.568,0.883-3.559,0.905-5.189-0.115
					c-2.385-1.488-3.109-4.624-1.623-7.005c4.469-7.154,8.546-14.656,12.115-22.306c1.188-2.549,4.215-3.644,6.759-2.455
					c2.543,1.188,3.644,4.215,2.456,6.759c-3.747,8.018-8.018,15.886-12.702,23.389
					C2231.878,948.363,2231.246,948.946,2230.531,949.349z M2252.51,902.329c-1.2,0.676-2.667,0.864-4.077,0.404
					c-2.668-0.873-4.125-3.745-3.252-6.412c2.629-8.038,4.794-16.305,6.435-24.567c0.547-2.758,3.226-4.546,5.976-3.997
					c2.754,0.546,4.542,3.22,3.995,5.972c-1.719,8.665-3.987,17.331-6.742,25.753
					C2254.434,900.738,2253.578,901.728,2252.51,902.329z M2262.593,851.393c-0.843,0.475-1.83,0.717-2.869,0.636
					c-2.8-0.207-4.9-2.648-4.692-5.448c0.634-8.43,0.751-16.974,0.351-25.391c-0.129-2.799,2.034-5.185,4.838-5.316
					c2.805-0.133,5.185,2.031,5.319,4.838c0.417,8.824,0.295,17.786-0.365,26.629
					C2265.041,849.103,2264.024,850.587,2262.593,851.393z"/>
				<path style="fill:#91B3FA;" d="M2031.301,1049.411c-0.854,0.481-1.856,0.72-2.907,0.634c-4.337-0.356-8.681-0.843-12.917-1.444
					c-2.778-0.396-4.714-2.969-4.32-5.749c0.402-2.773,2.969-4.708,5.749-4.319c4.038,0.575,8.184,1.038,12.322,1.38
					c2.798,0.23,4.88,2.687,4.649,5.484C2033.732,1047.142,2032.722,1048.611,2031.301,1049.411z"/>
			</g>
			<g>
				<path style="fill:#91B3FA;" d="M2002.763,990.115c1.022,0.401,2.187,0.109,2.898-0.727l20.317-23.849
					c14.48,2.092,29.399,1.89,44.208-0.832l21.202,23.037c0.743,0.808,1.918,1.055,2.924,0.616l34.437-15.044
					c1.007-0.44,1.623-1.47,1.536-2.564l-2.496-31.209c12.059-9.016,22.345-19.823,30.649-31.869l31.303,1.299
					c1.097,0.045,2.102-0.61,2.503-1.633l13.713-34.988c0.401-1.023,0.109-2.187-0.727-2.899l-23.849-20.316
					c2.092-14.481,1.89-29.399-0.832-44.208l23.038-21.202c0.808-0.744,1.055-1.918,0.616-2.924l-15.044-34.437
					c-0.44-1.007-1.469-1.623-2.564-1.535l-31.21,2.496c-9.016-12.06-19.823-22.345-31.869-30.649l1.299-31.303
					c0.045-1.097-0.61-2.102-1.632-2.503l-34.989-13.713c-1.022-0.401-2.187-0.108-2.898,0.727l-20.316,23.849
					c-14.48-2.093-29.399-1.89-44.208,0.832l-21.203-23.038c-0.744-0.808-1.917-1.056-2.924-0.616l-34.437,15.044
					c-1.006,0.439-1.623,1.469-1.535,2.564l2.496,31.21c-12.06,9.016-22.345,19.824-30.65,31.87l-31.302-1.299
					c-1.098-0.046-2.103,0.61-2.503,1.633l-13.713,34.988c-0.4,1.022-0.109,2.187,0.727,2.899l23.848,20.317
					c-2.092,14.48-1.889,29.399,0.833,44.208l-23.039,21.202c-0.807,0.743-1.055,1.918-0.615,2.924l15.043,34.436
					c0.44,1.007,1.469,1.623,2.564,1.536l31.21-2.496c9.016,12.059,19.823,22.344,31.869,30.649l-1.299,31.303
					c-0.046,1.097,0.61,2.102,1.632,2.503L2002.763,990.115z"/>
				<path style="fill:#BDD0FB;" d="M2064.276,863.187c-7.146,4.024-15.359,5.646-23.642,4.596
					c-10.189-1.294-19.264-6.479-25.554-14.599c-12.983-16.754-9.913-40.953,6.845-53.944c16.807-12.973,40.966-9.912,53.949,6.848
					c6.292,8.12,9.044,18.203,7.75,28.39c-1.292,10.191-6.476,19.268-14.6,25.557
					C2067.507,861.208,2065.918,862.262,2064.276,863.187z M2031.613,804.979c-1.192,0.671-2.347,1.436-3.461,2.297
					c-12.326,9.555-14.585,27.354-5.033,39.684c4.626,5.969,11.303,9.788,18.795,10.736c7.498,0.951,14.909-1.079,20.888-5.699l0,0
					c5.972-4.627,9.786-11.305,10.738-18.797c0.951-7.498-1.074-14.914-5.703-20.889
					C2059.149,801.097,2043.627,798.214,2031.613,804.979z"/>
				<path style="fill:#BDD0FB;" d="M2092.757,912.281c-2.803,1.578-5.708,3.026-8.716,4.343c-5.973,2.611-12.218,4.618-18.578,5.966
					c-0.286,0.059-0.573,0.117-0.859,0.175c-2.214,0.449-4.383-0.614-5.437-2.482c-0.256-0.454-0.445-0.957-0.553-1.494
					c-0.557-2.751,1.231-5.422,3.975-5.987c5.949-1.202,11.795-3.052,17.377-5.494l0.002-0.001c0.307-0.133,0.613-0.272,0.916-0.408
					c13.157-5.899,24.346-14.854,32.859-26.028c4.62-6.066,8.45-12.792,11.37-20.047c0.024-0.059,0.048-0.118,0.072-0.177
					c0.071-0.183,0.145-0.361,0.213-0.542c8.341-21.287,7.897-44.549-1.256-65.5c-1.183-2.713-2.495-5.341-3.927-7.885
					c-9.638-17.112-24.743-30.278-43.276-37.544c-21.287-8.341-44.547-7.893-65.496,1.259c-20.933,9.155-37.083,25.917-45.43,47.201
					c-8.341,21.287-7.897,44.549,1.256,65.5c1.163,2.667,2.46,5.264,3.877,7.781c6.15,10.917,14.617,20.364,24.83,27.637
					c0.629,0.449,1.126,1.012,1.479,1.645c0.935,1.661,0.893,3.787-0.288,5.443c-1.635,2.282-4.801,2.823-7.093,1.19
					c-11.428-8.139-20.904-18.71-27.784-30.919c-1.588-2.82-3.038-5.724-4.341-8.706c-10.241-23.443-10.739-49.467-1.404-73.284
					c9.335-23.812,27.363-42.578,50.822-52.807c23.44-10.242,49.462-10.742,73.279-1.404c20.734,8.123,37.632,22.856,48.415,42
					c1.6,2.842,3.07,5.786,4.395,8.817C2153.282,835.916,2135.015,888.487,2092.757,912.281z"/>
			</g>
		</g>
		
			<linearGradient id="SVGID_00000164472127361122121170000014322080339902048937_" gradientUnits="userSpaceOnUse" x1="1077.5225" y1="2269.1089" x2="1479.3553" y2="2269.1089">
			<stop  offset="0" style="stop-color:#4F52FF"/>
			<stop  offset="1" style="stop-color:#4042E2"/>
		</linearGradient>
		<polygon style="fill:url(#SVGID_00000164472127361122121170000014322080339902048937_);" points="1103.772,2414.21 
			1077.522,2374.917 1453.105,2124.008 1479.355,2163.3 		"/>
		
			<linearGradient id="SVGID_00000058573502396403190940000014910329217751426197_" gradientUnits="userSpaceOnUse" x1="2251.4578" y1="2282.1216" x2="2632.822" y2="2282.1216">
			<stop  offset="0" style="stop-color:#4F52FF"/>
			<stop  offset="1" style="stop-color:#4042E2"/>
		</linearGradient>
		<polygon style="fill:url(#SVGID_00000058573502396403190940000014910329217751426197_);" points="2600.204,2465.562 
			2251.458,2132.871 2284.076,2098.681 2632.822,2431.372 		"/>
		
			<linearGradient id="SVGID_00000042708581393548796500000011614561386839194015_" gradientUnits="userSpaceOnUse" x1="2172.1875" y1="1256.4242" x2="2655.6375" y2="1256.4242">
			<stop  offset="0" style="stop-color:#4F52FF"/>
			<stop  offset="1" style="stop-color:#4042E2"/>
		</linearGradient>
		<polygon style="fill:url(#SVGID_00000042708581393548796500000011614561386839194015_);" points="2202.32,1462.234 
			2172.188,1425.833 2625.505,1050.614 2655.637,1087.016 		"/>
		
			<linearGradient id="SVGID_00000044864718182503168690000010200458828589141120_" gradientUnits="userSpaceOnUse" x1="1220.5649" y1="1329.1288" x2="1676.562" y2="1329.1288">
			<stop  offset="0" style="stop-color:#4F52FF"/>
			<stop  offset="1" style="stop-color:#4042E2"/>
		</linearGradient>
		<polygon style="fill:url(#SVGID_00000044864718182503168690000010200458828589141120_);" points="1646.766,1520.604 
			1220.565,1174.328 1250.361,1137.653 1676.562,1483.929 		"/>
		<g>
			<g>
				
					<linearGradient id="SVGID_00000031189620323012075430000015734536322665430463_" gradientUnits="userSpaceOnUse" x1="2674.1658" y1="382.6511" x2="743.8061" y2="3825.5664">
					<stop  offset="0" style="stop-color:#4F52FF"/>
					<stop  offset="1" style="stop-color:#4042E2"/>
				</linearGradient>
				
					<circle style="fill:url(#SVGID_00000031189620323012075430000015734536322665430463_);" cx="1858.133" cy="1838.095" r="643.502"/>
				<path style="fill:#BDD0FB;" d="M1307.588,2105.613c-1.262,0-2.472-0.709-3.052-1.923
					c-39.467-82.865-59.477-171.774-59.477-264.26c0-230.803,127.386-440.237,332.447-546.569c1.648-0.857,3.688-0.214,4.549,1.442
					c0.857,1.655,0.211,3.692-1.444,4.55c-202.813,105.167-328.802,312.305-328.802,540.577c0,91.474,19.79,179.406,58.821,261.356
					c0.804,1.684,0.089,3.698-1.595,4.499C1308.567,2105.507,1308.072,2105.613,1307.588,2105.613z"/>
				<path style="fill:#BDD0FB;" d="M1537.481,2362.709c-0.61,0-1.226-0.165-1.78-0.509
					c-74.761-46.524-139.994-109.935-188.653-183.378c-1.028-1.554-0.603-3.649,0.949-4.677c1.552-1.033,3.649-0.605,4.68,0.949
					c48.126,72.64,112.646,135.358,186.59,181.374c1.582,0.986,2.067,3.067,1.081,4.649
					C1539.709,2362.145,1538.609,2362.709,1537.481,2362.709z"/>
				<path style="fill:#BDD0FB;" d="M2278.845,1396.371c-0.827,0-1.658-0.303-2.307-0.913
					c-82.214-77.101-183.723-129.733-293.544-152.206c-1.826-0.373-3.006-2.156-2.63-3.983c0.373-1.824,2.159-3.013,3.982-2.629
					c111.048,22.723,213.684,75.938,296.807,153.893c1.361,1.276,1.43,3.411,0.155,4.771
					C2280.641,1396.013,2279.745,1396.371,2278.845,1396.371z"/>
				
					<linearGradient id="SVGID_00000128451879741752927700000007469605096960914358_" gradientUnits="userSpaceOnUse" x1="1287.3763" y1="1835.3232" x2="2433.3193" y2="1835.3232">
					<stop  offset="0" style="stop-color:#DAE3FE"/>
					<stop  offset="1" style="stop-color:#E9EFFD"/>
				</linearGradient>
				
					<circle style="fill:url(#SVGID_00000128451879741752927700000007469605096960914358_);" cx="1860.348" cy="1835.323" r="572.972"/>
			</g>
			<g>
				<defs>
					<circle id="SVGID_00000157292261416580318710000013102576356713292678_" cx="1862.61" cy="1857.968" r="562.112"/>
				</defs>
				<clipPath id="SVGID_00000150809652705311710250000001370433508834260864_">
					<use xlink:href="#SVGID_00000157292261416580318710000013102576356713292678_"  style="overflow:visible;"/>
				</clipPath>
				<g style="clip-path:url(#SVGID_00000150809652705311710250000001370433508834260864_);">
					<g>
						<path style="fill:#FFFFFF;" d="M2172.652,2665.597l-79.654-834.63c-191.297-70.698-432.502,8.317-432.502,8.317
							l-37.249,826.313H2172.652z"/>
						
							<linearGradient id="SVGID_00000071525366174784447740000009516265356271795122_" gradientUnits="userSpaceOnUse" x1="1857.8702" y1="1991.8403" x2="1885.9714" y2="1751.42">
							<stop  offset="0" style="stop-color:#FEBBBA"/>
							<stop  offset="1" style="stop-color:#FF928E"/>
						</linearGradient>
						<path style="fill:url(#SVGID_00000071525366174784447740000009516265356271795122_);" d="M1793.575,1689.573l-3.591,118.475
							c-0.354,11.715,6.911,22.272,17.966,26.171c30.291,10.685,93.001,26.93,152.431,5.651
							c11.989-4.293,19.206-16.565,17.353-29.165l-17.813-121.132H1793.575z"/>
						
							<linearGradient id="SVGID_00000010306375315568334880000006555054011097945490_" gradientUnits="userSpaceOnUse" x1="2117.9392" y1="1606.7665" x2="1672.4409" y2="2249.7014">
							<stop  offset="0" style="stop-color:#09005D"/>
							<stop  offset="1" style="stop-color:#1A0F91"/>
						</linearGradient>
						<path style="fill:url(#SVGID_00000010306375315568334880000006555054011097945490_);" d="M1827.324,2665.597
							c21.078-21.075,32.788-36.169,32.788-36.169l-24.95-70.696c0,0-203.776,116.441-270.314,58.219
							c-66.539-58.219,45.748-399.229,45.748-399.229l-162.191-295.266c0,0-136.134,453.87-90.358,701.889
							c4.406,23.873,25.219,41.252,49.495,41.252H1827.324z"/>
						<polygon style="fill:#FFFFFF;" points="1791.407,1761.076 1883.997,1849.846 1817.135,1895.449 1758.027,1815.891 						"/>
						<polygon style="fill:#FFFFFF;" points="1968.732,1761.076 1876.142,1849.846 1943.004,1895.449 2002.111,1815.891 						"/>
						<g>
							
								<linearGradient id="SVGID_00000086660985900935202570000009396172462774488197_" gradientUnits="userSpaceOnUse" x1="1884.0597" y1="1722.7302" x2="1873.3109" y2="1412.9734">
								<stop  offset="0" style="stop-color:#FEBBBA"/>
								<stop  offset="1" style="stop-color:#FF928E"/>
							</linearGradient>
							<path style="fill:url(#SVGID_00000086660985900935202570000009396172462774488197_);" d="M1732.985,1473.323
								c0,0,20.794,212.092,66.539,266.153c0,0,137.236,12.477,187.139-16.634c0,0,35.349-106.045,31.19-247.44
								c0,0,6.815-128.667-135.156-139.315C1716.351,1323.612,1732.985,1473.323,1732.985,1473.323z"/>
							
								<linearGradient id="SVGID_00000014598306152638215670000011409055937236553139_" gradientUnits="userSpaceOnUse" x1="2029.2393" y1="1717.6936" x2="2018.4905" y2="1407.9355">
								<stop  offset="0" style="stop-color:#FEBBBA"/>
								<stop  offset="1" style="stop-color:#FF928E"/>
							</linearGradient>
							<path style="fill:url(#SVGID_00000014598306152638215670000011409055937236553139_);" d="M2003.298,1539.861
								c0,0,12.476-37.428,33.268-37.428c20.794,0-4.157,99.808-33.268,99.808V1539.861z"/>
							
								<linearGradient id="SVGID_00000164505910909439268410000004715025859581911721_" gradientUnits="userSpaceOnUse" x1="1739.6511" y1="1727.7422" x2="1728.9023" y2="1417.9857">
								<stop  offset="0" style="stop-color:#FEBBBA"/>
								<stop  offset="1" style="stop-color:#FF928E"/>
							</linearGradient>
							<path style="fill:url(#SVGID_00000164505910909439268410000004715025859581911721_);" d="M1751.91,1549.691
								c0,0-17.409-35.404-38.013-32.599c-20.603,2.803,17.58,98.335,46.425,94.41L1751.91,1549.691z"/>
							
								<linearGradient id="SVGID_00000138566696629762229430000003330752984460762028_" gradientUnits="userSpaceOnUse" x1="1645.2456" y1="1159.2861" x2="2032.603" y2="1923.533">
								<stop  offset="0" style="stop-color:#09005D"/>
								<stop  offset="1" style="stop-color:#1A0F91"/>
							</linearGradient>
							<path style="fill:url(#SVGID_00000138566696629762229430000003330752984460762028_);" d="M1747.342,1585.222
								c0,0,4.662,126.688,60.384,190.942c5.114,5.897,12.51,9.327,20.305,9.702c28.442,1.368,101.148,3.813,142.144-4.356
								c10.205-2.033,18.604-9.227,21.962-19.075c10.079-29.547,27.575-76.145,21.558-183.065l-33.444,79.695
								c-24.776,65.858-38.224-14.086-49.729-13.156h-74.856c-7.889,0.636-16.635,49.903-45.867,35.469L1747.342,1585.222z"/>
							
								<linearGradient id="SVGID_00000009588156061116055660000008760033225321895810_" gradientUnits="userSpaceOnUse" x1="1716.8486" y1="1122.9952" x2="2104.2063" y2="1887.2424">
								<stop  offset="0" style="stop-color:#09005D"/>
								<stop  offset="1" style="stop-color:#1A0F91"/>
							</linearGradient>
							<path style="fill:url(#SVGID_00000009588156061116055660000008760033225321895810_);" d="M1961.712,1423.42
								c0,0-105.954,108.972-221.402,108.548c0,0-65.545-175.087,63.373-204.198c128.918-29.11,133.077,8.317,133.077,8.317
								s148.367-37.189,81.307,176.78L1961.712,1423.42z"/>
						</g>
						
							<linearGradient id="SVGID_00000182518197350793648350000011726492681211251075_" gradientUnits="userSpaceOnUse" x1="2622.0854" y1="1956.0963" x2="2176.5857" y2="2599.0339">
							<stop  offset="0" style="stop-color:#09005D"/>
							<stop  offset="1" style="stop-color:#1A0F91"/>
						</linearGradient>
						<path style="fill:url(#SVGID_00000182518197350793648350000011726492681211251075_);" d="M1996.844,2665.597h386.099
							c17.376,0,33.54-8.957,42.745-23.694l0,0c166.35-266.153-70.695-702.812-70.695-702.812l-124.762,328.534
							c0,0,108.127,108.125,49.907,278.63c-58.223,170.505-295.265,37.429-295.265,37.429l8.316,79.014
							C1993.189,2662.698,1994.473,2663.753,1996.844,2665.597z"/>
						
							<linearGradient id="SVGID_00000070080712311417599760000006656685933511167648_" gradientUnits="userSpaceOnUse" x1="4011.9988" y1="-545.9108" x2="3444.9707" y2="102.122">
							<stop  offset="0" style="stop-color:#FF928E"/>
							<stop  offset="1" style="stop-color:#FE7062"/>
						</linearGradient>
						<polygon style="fill:url(#SVGID_00000070080712311417599760000006656685933511167648_);" points="1870.309,1857.432 
							1835.765,1880.94 1860.114,1928.292 1899.814,1928.292 1926.35,1884.271 1881.133,1853.34 						"/>
						
							<linearGradient id="SVGID_00000070097780683456211520000018432491279103016891_" gradientUnits="userSpaceOnUse" x1="4173.042" y1="-405.0026" x2="3606.0151" y2="243.0287">
							<stop  offset="0" style="stop-color:#FF928E"/>
							<stop  offset="1" style="stop-color:#FE7062"/>
						</linearGradient>
						<polygon style="fill:url(#SVGID_00000070097780683456211520000018432491279103016891_);" points="1860.114,1928.292 
							1833.165,2376.945 1901.699,2500.875 1970.683,2381.419 1899.814,1928.292 						"/>
						
							<linearGradient id="SVGID_00000114069389012871758300000010999589115564244135_" gradientUnits="userSpaceOnUse" x1="2145.8259" y1="1626.0891" x2="1700.3263" y2="2269.0264">
							<stop  offset="0" style="stop-color:#09005D"/>
							<stop  offset="1" style="stop-color:#1A0F91"/>
						</linearGradient>
						<path style="fill:url(#SVGID_00000114069389012871758300000010999589115564244135_);" d="M1570.004,2217.33
							c29.501,71.541,43.592,148.496,41.35,225.847l-6.447,222.421h312.695l-15.901-316.855l-143.673-532.811
							c-133.077,20.794-309.622,106.525-309.622,106.525L1570.004,2217.33z"/>
						
							<linearGradient id="SVGID_00000114758167234203473470000013892084334237263027_" gradientUnits="userSpaceOnUse" x1="2400.9429" y1="1802.8633" x2="1955.4429" y2="2445.801">
							<stop  offset="0" style="stop-color:#09005D"/>
							<stop  offset="1" style="stop-color:#1A0F91"/>
						</linearGradient>
						<path style="fill:url(#SVGID_00000114758167234203473470000013892084334237263027_);" d="M2204.056,2665.597l9.541-184.528
							c0-94.472,16.119-188.252,47.658-277.304l93.738-264.674c-120.599-108.124-358.09-131.714-358.09-131.714l-95.202,541.366
							v316.855H2204.056z"/>
						<path style="fill:#91B3FA;" d="M1875.358,2330.1c-0.644,0-1.284-0.27-1.74-0.796l-128.015-147.636
							c-0.278-0.319-0.463-0.714-0.533-1.137l-12.903-79.134l-47.379-9.531c-1.041-0.211-1.803-1.101-1.845-2.163l-10.188-250.518
							c-0.052-1.273,0.935-2.342,2.205-2.397c1.32-0.049,2.342,0.936,2.394,2.208l10.114,248.711l47.17,9.491
							c0.94,0.188,1.663,0.94,1.818,1.888l13.054,80.06l127.588,147.146c0.831,0.958,0.728,2.415-0.232,3.247
							C1876.43,2329.916,1875.893,2330.1,1875.358,2330.1z"/>
						<path style="fill:#91B3FA;" d="M1918.292,2330.1c-0.535,0-1.072-0.186-1.509-0.567c-0.96-0.839-1.063-2.308-0.231-3.274
							l127.588-148.397l13.054-80.741c0.155-0.956,0.88-1.714,1.819-1.904l47.17-9.572l10.114-250.826
							c0.05-1.283,1.012-2.272,2.395-2.227c1.27,0.055,2.257,1.134,2.205,2.417l-10.188,252.648
							c-0.042,1.071-0.805,1.968-1.845,2.181l-47.38,9.613l-12.903,79.807c-0.07,0.427-0.254,0.825-0.532,1.147l-128.015,148.891
							C1919.576,2329.828,1918.935,2330.1,1918.292,2330.1z"/>
					</g>
				</g>
			</g>
		</g>
		<g>
			<g>
				
					<linearGradient id="SVGID_00000101820385202620795380000012181376366550787489_" gradientUnits="userSpaceOnUse" x1="1403.1953" y1="1724.4204" x2="188.5627" y2="3890.7925">
					<stop  offset="0" style="stop-color:#4F52FF"/>
					<stop  offset="1" style="stop-color:#4042E2"/>
				</linearGradient>
				
					<circle style="fill:url(#SVGID_00000101820385202620795380000012181376366550787489_);" cx="889.727" cy="2640.224" r="404.908"/>
				<path style="fill:#BDD0FB;" d="M543.31,2809.805c-1.262,0-2.472-0.709-3.049-1.923c-24.915-52.31-37.549-108.436-37.549-166.819
					c0-145.698,80.414-277.904,209.86-345.027c1.648-0.855,3.688-0.214,4.549,1.442c0.857,1.655,0.211,3.692-1.444,4.55
					c-127.198,65.957-206.215,195.867-206.215,339.034c0,57.37,12.413,112.519,36.89,163.915c0.804,1.684,0.089,3.698-1.595,4.499
					C544.289,2809.699,543.794,2809.805,543.31,2809.805z"/>
				<path style="fill:#BDD0FB;" d="M687.961,2971.575c-0.61,0-1.226-0.165-1.78-0.509c-47.196-29.373-88.374-69.4-119.087-115.758
					c-1.028-1.554-0.603-3.649,0.949-4.677c1.552-1.033,3.649-0.605,4.68,0.949c30.179,45.555,70.645,84.89,117.023,113.754
					c1.582,0.986,2.067,3.067,1.081,4.649C690.189,2971.012,689.088,2971.575,687.961,2971.575z"/>
				<circle style="fill:#BDD0FB;" cx="891.12" cy="2638.479" r="360.529"/>
			</g>
			<g>
				<g>
					
						<linearGradient id="SVGID_00000142157226730711823760000011167032758771788438_" gradientUnits="userSpaceOnUse" x1="-6324.8735" y1="2905.2874" x2="-6162.6118" y2="2905.2874" gradientTransform="matrix(1 0 0 1 6979.4956 0)">
						<stop  offset="0" style="stop-color:#FEBBBA"/>
						<stop  offset="1" style="stop-color:#FF928E"/>
					</linearGradient>
					<path style="fill:url(#SVGID_00000142157226730711823760000011167032758771788438_);" d="M713.024,2830.405
						c-16.646,17.768-41.156,33.121-58.402,42.695c25.757,31.837,60.61,63.721,106.748,94.927l8.683,7.516l10.613,4.627
						l36.218-33.219C816.884,2946.951,740.967,2909.172,713.024,2830.405z"/>
					
						<linearGradient id="SVGID_00000033362880886791966420000009501543471406306967_" gradientUnits="userSpaceOnUse" x1="7435.6226" y1="-13651.1445" x2="6868.5933" y2="-13003.1113" gradientTransform="matrix(1 0 0 1 7747.2642 0)">
						<stop  offset="0" style="stop-color:#FF928E"/>
						<stop  offset="1" style="stop-color:#FE7062"/>
					</linearGradient>
					<path style="fill:url(#SVGID_00000033362880886791966420000009501543471406306967_);" d="M1101.333,2549.8
						c-13.641-17.099-25.592-35.428-35.589-54.314c-13.961-26.377-1.123,17.075-4.938-12.712
						c-104.552-75.447-261.987-37.259-322.884-29.587c-19.969,2.515-38.231,12.359-51.389,27.588
						c-52.183,60.39-166.693,225.725-31.911,392.325c17.247-9.574,41.756-24.927,58.402-42.695
						c-14.911-42.034-16.132-95.75,15.118-161.621c1.068,5.221,2.388,10.39,3.992,15.476
						c43.072,136.455,45.37,250.005,45.274,276.176c-0.014,3.554-4.426,15.535-1.319,17.263
						c103.912,57.777,227.447,11.5,227.447,11.5c-25.868-128.641,65.555-373.743,90.689-429.094
						C1095.978,2556.244,1098.402,2552.769,1101.333,2549.8z"/>
					
						<linearGradient id="SVGID_00000157281093876146114950000014208297162823883692_" gradientUnits="userSpaceOnUse" x1="-6076.541" y1="2313.6548" x2="-6165.2808" y2="2697.1365" gradientTransform="matrix(1 0 0 1 6979.4956 0)">
						<stop  offset="0" style="stop-color:#FEBBBA"/>
						<stop  offset="1" style="stop-color:#FF928E"/>
					</linearGradient>
					<path style="fill:url(#SVGID_00000157281093876146114950000014208297162823883692_);" d="M835.901,2343.517l-10.925,111.621
						c0,0,62.793,18.913,108.464-13.312l-32.105-101.446L835.901,2343.517z"/>
					<g>
						
							<linearGradient id="SVGID_00000103976312093059401340000009142412886585777853_" gradientUnits="userSpaceOnUse" x1="-5771.7871" y1="-4788.1655" x2="-5929.2231" y2="-4579.8901" gradientTransform="matrix(0.6854 -0.7281 0.7281 0.6854 8330.4951 1318.7853)">
							<stop  offset="0" style="stop-color:#FEBBBA"/>
							<stop  offset="1" style="stop-color:#FF928E"/>
						</linearGradient>
						<path style="fill:url(#SVGID_00000103976312093059401340000009142412886585777853_);" d="M908.761,2216.296
							c1.511,1.423,63.781,123.708,63.781,123.708l-70.578,34.071l-76.239-107.132
							C825.726,2266.942,883.461,2192.479,908.761,2216.296z"/>
						
							<linearGradient id="SVGID_00000026126975082045148010000010934211584736691596_" gradientUnits="userSpaceOnUse" x1="853.0897" y1="2198.3062" x2="984.9221" y2="2662.1609">
							<stop  offset="0" style="stop-color:#09005D"/>
							<stop  offset="1" style="stop-color:#1A0F91"/>
						</linearGradient>
						<path style="fill:url(#SVGID_00000026126975082045148010000010934211584736691596_);" d="M856.954,2269.909
							c-1.259,3.258-0.95,6.893,0.847,9.888l35.2,58.678c0.535,0.89,1.171,1.695,1.931,2.403c4.19,3.9,18.527,15.244,29.611-0.2
							c9.447-13.164,18.31-25.132,27.808-30.068c5.546-2.883,12.371-0.581,15.187,4.999c5.799,11.495,17.033,34.927,24.091,57.146
							c1.769,5.569-1.106,11.548-6.521,13.742c-14.29,5.79-42.536,16.261-67.601,19.72c-4.117,0.569-8.194-1.168-10.644-4.525
							c-10.784-14.773-41.177-56.057-51.55-66.391c-9.637-9.6-27.423-5.98-35.438-3.677c-3.042,0.874-6.282,0.453-8.993-1.18
							c-8.132-4.898-22.322-17.094-9.341-37.744c3.228-5.134,1.582-11.973-3.485-15.306c-9.078-5.972-18.93-17.182-9.544-35.335
							c9.502-18.377,26.469-20.027,38.025-18.615c5.113,0.625,10.304-2.056,12.266-6.819c0.872-2.119,2.598-3.924,5.809-4.576
							c6.057-1.229,10.032-6.768,8.844-12.832c-2.038-10.399-0.503-23.908,16.1-33.037c30.453-16.743,57.128,10.538,63.91,33.568
							c6.783,23.031-27.265,39.305-48.683,42.021C869.05,2243.764,860.424,2260.935,856.954,2269.909z"/>
						
							<linearGradient id="SVGID_00000071555704321235127160000013923190463816660884_" gradientUnits="userSpaceOnUse" x1="-6002.3691" y1="-4623.2275" x2="-5876.0923" y2="-4752.7837" gradientTransform="matrix(0.6854 -0.7281 0.7281 0.6854 8330.4951 1318.7853)">
							<stop  offset="0" style="stop-color:#FEBBBA"/>
							<stop  offset="1" style="stop-color:#FF928E"/>
						</linearGradient>
						<path style="fill:url(#SVGID_00000071555704321235127160000013923190463816660884_);" d="M868.533,2356.85
							c0,0-13.541-39.622-30.874-38.167c-17.334,1.455-30.976,18.722-9.494,38.134
							C854.886,2380.962,868.533,2356.85,868.533,2356.85z"/>
					</g>
					
						<linearGradient id="SVGID_00000054228955982006913640000014026750880811207056_" gradientUnits="userSpaceOnUse" x1="3699.6023" y1="-819.2587" x2="3132.574" y2="-171.2259">
						<stop  offset="0" style="stop-color:#FF928E"/>
						<stop  offset="1" style="stop-color:#FE7062"/>
					</linearGradient>
					<path style="fill:url(#SVGID_00000054228955982006913640000014026750880811207056_);" d="M722.426,2658.579
						c-22.847-62.527-14.56-138.03-14.473-138.785l6.295,0.719c-0.083,0.742-8.195,74.796,14.132,135.889L722.426,2658.579z"/>
					<g>
						
							<linearGradient id="SVGID_00000129173473211487408050000001172001200489572490_" gradientUnits="userSpaceOnUse" x1="7506.5806" y1="-13589.0625" x2="6939.5527" y2="-12941.0303" gradientTransform="matrix(1 0 0 1 7747.2642 0)">
							<stop  offset="0" style="stop-color:#FF928E"/>
							<stop  offset="1" style="stop-color:#FE7062"/>
						</linearGradient>
						<path style="fill:url(#SVGID_00000129173473211487408050000001172001200489572490_);" d="M1313.559,2584.905
							c-118.25,17.743-195.321-56.869-252.752-102.13c-75.824-59.756-134.83-30.684-134.83-30.684l80.863,154.328
							c120.758,113.857,244.571,88.573,322.627,51.677C1330.668,2628.286,1322.702,2603.34,1313.559,2584.905z"/>
						
							<linearGradient id="SVGID_00000080188214463353831580000000635798755318770603_" gradientUnits="userSpaceOnUse" x1="-6147.3638" y1="2304.2849" x2="-6690.4038" y2="2999.0566" gradientTransform="matrix(1 0 0 1 7747.2642 0)">
							<stop  offset="0" style="stop-color:#FEBBBA"/>
							<stop  offset="1" style="stop-color:#FF928E"/>
						</linearGradient>
						<path style="fill:url(#SVGID_00000080188214463353831580000000635798755318770603_);" d="M1479.757,2514.357l-39.214,21.102
							c-47.03,28.633-89.113,43.763-126.984,49.446c9.143,18.435,17.109,43.382,15.907,73.191
							c49.689-23.487,80.84-51.677,80.84-51.677C1499.14,2553.448,1479.757,2514.357,1479.757,2514.357z"/>
					</g>
					
						<linearGradient id="SVGID_00000118367344192187528480000006597736229250887812_" gradientUnits="userSpaceOnUse" x1="-6074.6875" y1="2361.0872" x2="-6617.7285" y2="3055.8606" gradientTransform="matrix(1 0 0 1 7747.2642 0)">
						<stop  offset="0" style="stop-color:#FEBBBA"/>
						<stop  offset="1" style="stop-color:#FF928E"/>
					</linearGradient>
					<path style="fill:url(#SVGID_00000118367344192187528480000006597736229250887812_);" d="M1595.28,2569.616
						c-2.532-8.416-8.753-15.224-16.908-18.503l-79.584-32.004c0,0-1.201-10.207,16.815-17.142
						c18.018-6.936,13.805-27.114,13.805-27.114s-24.614,11.228-60.648,29.037c-20.608,10.184-32.17,28.166-38.302,41.701
						l20.487,26.943c49.05,14.735,98.682,17.552,148.738,11.708L1595.28,2569.616z"/>
				</g>
			</g>
		</g>
		<g>
			<g>
				
					<linearGradient id="SVGID_00000134243816747507596740000018120142427569591975_" gradientUnits="userSpaceOnUse" x1="1674.8958" y1="1851.7334" x2="384.3386" y2="4153.5215" gradientTransform="matrix(-1 0 0 1 3953.4617 0)">
					<stop  offset="0" style="stop-color:#4F52FF"/>
					<stop  offset="1" style="stop-color:#4042E2"/>
				</linearGradient>
				
					<circle style="fill:url(#SVGID_00000134243816747507596740000018120142427569591975_);" cx="2824.131" cy="2824.782" r="430.218"/>
				<path style="fill:#BDD0FB;" d="M3192.2,3004.752c-0.485,0-0.979-0.105-1.447-0.328c-1.684-0.801-2.4-2.817-1.595-4.499
					c26.022-54.634,39.217-113.261,39.217-174.251c0-152.196-84-290.299-219.218-360.413c-1.655-0.859-2.301-2.896-1.444-4.55
					c0.857-1.656,2.9-2.297,4.549-1.442c137.469,71.279,222.863,211.678,222.863,366.405c0,62.002-13.415,121.606-39.876,177.155
					C3194.672,3004.043,3193.462,3004.752,3192.2,3004.752z"/>
				<path style="fill:#BDD0FB;" d="M3038.508,3176.635c-1.127,0-2.228-0.564-2.868-1.592c-0.986-1.582-0.501-3.664,1.081-4.649
					c49.302-30.681,92.32-72.497,124.403-120.926c1.029-1.554,3.121-1.983,4.68-0.949c1.552,1.028,1.978,3.123,0.949,4.677
					c-32.618,49.232-76.347,91.739-126.467,122.93C3039.734,3176.47,3039.118,3176.635,3038.508,3176.635z"/>
				<circle style="fill:#BDD0FB;" cx="2822.65" cy="2822.929" r="383.065"/>
			</g>
			<g>
				
					<linearGradient id="SVGID_00000139283338991429538020000008613948465349451667_" gradientUnits="userSpaceOnUse" x1="5722.0181" y1="2385.5845" x2="5290.2949" y2="2916.3276" gradientTransform="matrix(-0.9922 -0.1247 -0.1247 0.9922 8264.5254 715.4178)">
					<stop  offset="0" style="stop-color:#FEBBBA"/>
					<stop  offset="1" style="stop-color:#FF928E"/>
				</linearGradient>
				<path style="fill:url(#SVGID_00000139283338991429538020000008613948465349451667_);" d="M2330.793,2519.141
					c2.811-5.373,10.762-4.527,12.385,1.316c6.009,21.627,20.551,59.367,51.067,72.768c1.537,0.675,2.992,1.357,4.4,2.045
					c1.385-4.15,1.404-8.968-1.91-14.035c-9.488-14.499,7.639-34.3,7.639-34.3s1.134,17.439,14.392,28.42
					c11.417,9.46,16.899,30.508,9.097,47.775c-16.515,64.151-41.247,148.996,55.089,210.98
					c96.333,61.985,231.999-116.979,231.999-116.979l-67.334,213.461c0,0-103.931,76.695-224.821-31.151
					c-120.89-107.846-40.762-264.776-40.762-264.776S2289.826,2597.468,2330.793,2519.141z"/>
				
					<linearGradient id="SVGID_00000054238685607773328120000017146586598055916419_" gradientUnits="userSpaceOnUse" x1="2857.3267" y1="2252.7434" x2="2979.7437" y2="3001.939">
					<stop  offset="0" style="stop-color:#09005D"/>
					<stop  offset="1" style="stop-color:#1A0F91"/>
				</linearGradient>
				<path style="fill:url(#SVGID_00000054238685607773328120000017146586598055916419_);" d="M2731.821,2403.494
					c0,0-27.91-125.193,115.496-92.052c0,0,69.61-11.375,73.15,54.326c0,0,44.871,29.567,12.018,86.428
					c0,0,133.353-51.508,191.454,65.377c58.103,116.884,4.694,181.198-51.293,197.95c0,0,45.361,22.775,23.89,74.202
					c-21.471,51.426-130.206,87.678-194.437,25.138c0,0-182.769,24.153-179.111-104.945c0,0-85.008-54.895,4.278-161.585
					C2816.55,2441.645,2731.821,2403.494,2731.821,2403.494z"/>
				
					<linearGradient id="SVGID_00000180355659440635454320000017880235164137855379_" gradientUnits="userSpaceOnUse" x1="5060.5703" y1="371.5847" x2="4493.5425" y2="1019.617">
					<stop  offset="0" style="stop-color:#FF928E"/>
					<stop  offset="1" style="stop-color:#FE7062"/>
				</linearGradient>
				<path style="fill:url(#SVGID_00000180355659440635454320000017880235164137855379_);" d="M2723.945,2693.681
					c28.817-8.639,112.722-24.589,192.531,49.061c13.535,12.492,19.066,31.472,14.239,49.246
					c-21.436,78.918-81.423,304.418-31.832,405.302c0,0-88.973,27.456-188.357-9.767c0,0-33.718-150.32-89.746-232.165
					c-38.683-56.504,61.68-212.184,87.073-249.795C2711.698,2699.868,2717.365,2695.654,2723.945,2693.681z"/>
				
					<linearGradient id="SVGID_00000165223425990076984010000015594041602733260981_" gradientUnits="userSpaceOnUse" x1="-5370.3271" y1="3617.1321" x2="-5347.2622" y2="3453.3716" gradientTransform="matrix(0.9602 0.2794 -0.2794 0.9602 8902.9297 797.6744)">
					<stop  offset="0" style="stop-color:#FEBBBA"/>
					<stop  offset="1" style="stop-color:#FF928E"/>
				</linearGradient>
				<path style="fill:url(#SVGID_00000165223425990076984010000015594041602733260981_);" d="M2803.511,2536.893
					c0,0,42.618,120.548,45.824,173.729c0,0-47.102,21.418-91.486-14.732c0,0-4.656-120.408-11.385-141.969L2803.511,2536.893z"/>
				
					<linearGradient id="SVGID_00000014632292320892996710000014760105566659270528_" gradientUnits="userSpaceOnUse" x1="-5476.0698" y1="3266.2397" x2="-5260.4077" y2="3514.1931" gradientTransform="matrix(0.9602 0.2794 -0.2794 0.9602 8902.9297 797.6744)">
					<stop  offset="0" style="stop-color:#FEBBBA"/>
					<stop  offset="1" style="stop-color:#FF928E"/>
				</linearGradient>
				<path style="fill:url(#SVGID_00000014632292320892996710000014760105566659270528_);" d="M2744.313,2372.529
					c0,0-111.469,155.996-44.837,201.308c66.634,45.311,145.986-65.548,145.986-65.548s25.865-85.383-1.181-114.348
					C2817.237,2364.975,2744.313,2372.529,2744.313,2372.529z"/>
				
					<linearGradient id="SVGID_00000111911557098659531260000004170313600248850321_" gradientUnits="userSpaceOnUse" x1="2792.8057" y1="2263.2864" x2="2915.2224" y2="3012.48">
					<stop  offset="0" style="stop-color:#09005D"/>
					<stop  offset="1" style="stop-color:#1A0F91"/>
				</linearGradient>
				<path style="fill:url(#SVGID_00000111911557098659531260000004170313600248850321_);" d="M2795.909,2335.25
					c0,0-51.208,12.134-58.386,35.302c-7.176,23.171,72.62,44.656,94.978,45.707l18.016,93.499c0,0,53.257-87.955,32.159-138.752
					C2861.581,2320.208,2795.909,2335.25,2795.909,2335.25z"/>
				
					<linearGradient id="SVGID_00000092449334177437354700000011297922986031376030_" gradientUnits="userSpaceOnUse" x1="-5422.189" y1="3219.3699" x2="-5206.5278" y2="3467.3228" gradientTransform="matrix(0.9602 0.2794 -0.2794 0.9602 8902.9297 797.6744)">
					<stop  offset="0" style="stop-color:#FEBBBA"/>
					<stop  offset="1" style="stop-color:#FF928E"/>
				</linearGradient>
				<path style="fill:url(#SVGID_00000092449334177437354700000011297922986031376030_);" d="M2823.854,2496.808
					c0,0,43.386-50.247,60.644-17.489c17.258,32.758-39.052,57.352-58.546,41.269L2823.854,2496.808z"/>
				
					<linearGradient id="SVGID_00000132800363531167578770000005192803774485847170_" gradientUnits="userSpaceOnUse" x1="4841.0249" y1="3152.3811" x2="5694.5552" y2="2176.0681" gradientTransform="matrix(-0.9922 -0.1247 -0.1247 0.9922 8264.5254 715.4178)">
					<stop  offset="0" style="stop-color:#FEBBBA"/>
					<stop  offset="1" style="stop-color:#FF928E"/>
				</linearGradient>
				<path style="fill:url(#SVGID_00000132800363531167578770000005192803774485847170_);" d="M2927.894,2758.49
					c0,0,136.149,113.145,169.937,267.757c33.788,154.611-198.948,171.043-198.948,171.043s-31.594-35.281-69.104-22.698
					c-37.51,12.583-2.905-61.574,40.982-61.38c43.887,0.195,23.557,34.897,85.64,6.775c60.479-27.395,97.86-112.118-56.446-240.548
					c-8.944-7.445-16.082-16.935-20.38-27.75C2849.598,2776.226,2873.375,2726.761,2927.894,2758.49z"/>
			</g>
		</g>
		<g>
			<g>
				
					<linearGradient id="SVGID_00000085937466175842874460000010172506198210039717_" gradientUnits="userSpaceOnUse" x1="1701.4794" y1="34.2511" x2="481.3395" y2="2210.4456" gradientTransform="matrix(-1 0 0 1 3953.4617 0)">
					<stop  offset="0" style="stop-color:#4F52FF"/>
					<stop  offset="1" style="stop-color:#4042E2"/>
				</linearGradient>
				
					<circle style="fill:url(#SVGID_00000085937466175842874460000010172506198210039717_);" cx="2767.779" cy="954.207" r="406.744"/>
				<path style="fill:#BDD0FB;" d="M3115.764,1124.541c-0.485,0-0.979-0.105-1.447-0.328c-1.684-0.801-2.399-2.815-1.595-4.499
					c24.592-51.633,37.061-107.035,37.061-164.665c0-143.82-79.379-274.326-207.158-340.585c-1.655-0.859-2.301-2.896-1.444-4.55
					c0.857-1.658,2.901-2.299,4.549-1.442c130.03,67.424,210.803,200.226,210.803,346.578c0,58.642-12.69,115.019-37.72,167.568
					C3118.236,1123.833,3117.027,1124.541,3115.764,1124.541z"/>
				<path style="fill:#BDD0FB;" d="M2970.458,1287.045c-1.127,0-2.228-0.564-2.868-1.592c-0.985-1.582-0.501-3.663,1.081-4.649
					c46.593-28.995,87.244-68.51,117.561-114.273c1.025-1.554,3.112-1.983,4.68-0.949c1.552,1.028,1.978,3.123,0.949,4.677
					c-30.851,46.565-72.213,86.774-119.624,116.277C2971.684,1286.881,2971.067,1287.045,2970.458,1287.045z"/>
				<circle style="fill:#BDD0FB;" cx="2766.38" cy="952.455" r="362.163"/>
			</g>
			<g>
				
					<linearGradient id="SVGID_00000153668347753022245640000011711765255421392286_" gradientUnits="userSpaceOnUse" x1="4105.6226" y1="-463.9943" x2="3538.5952" y2="184.0374">
					<stop  offset="0" style="stop-color:#FF928E"/>
					<stop  offset="1" style="stop-color:#FE7062"/>
				</linearGradient>
				<path style="fill:url(#SVGID_00000153668347753022245640000011711765255421392286_);" d="M2869.524,886.681
					c6.183,2.673-25.696,252.164,14.342,408.447c0,0-67.06,23.669-153.375,19.609c0,0-144.101-219.994-147.872-245.336
					c-4.273-28.716,17.793-175.978,17.793-175.978S2716.957,820.733,2869.524,886.681z"/>
				
					<linearGradient id="SVGID_00000052061850616908326820000003317878600818671759_" gradientUnits="userSpaceOnUse" x1="-1106.8112" y1="1003.9781" x2="-949.8643" y2="712.5059" gradientTransform="matrix(-1 0 0 1 1641.5186 0)">
					<stop  offset="0" style="stop-color:#FEBBBA"/>
					<stop  offset="1" style="stop-color:#FF928E"/>
				</linearGradient>
				<path style="fill:url(#SVGID_00000052061850616908326820000003317878600818671759_);" d="M2684.129,986.884
					c-71.218,2.416-76.885-58.611-72.827-99.308c23.419-11.498,82.933-35.224,161.611-26.748
					C2774.369,895.566,2769.636,983.983,2684.129,986.884z"/>
				
					<linearGradient id="SVGID_00000108285145532245094460000005857795752231237767_" gradientUnits="userSpaceOnUse" x1="-1108.4546" y1="1003.0931" x2="-951.508" y2="711.6213" gradientTransform="matrix(-1 0 0 1 1641.5186 0)">
					<stop  offset="0" style="stop-color:#FEBBBA"/>
					<stop  offset="1" style="stop-color:#FF928E"/>
				</linearGradient>
				<path style="fill:url(#SVGID_00000108285145532245094460000005857795752231237767_);" d="M2662.984,754.337
					c0,0,35.376,74.753,56.041,106.271c6.064,9.25,4.204,21.638-4.377,28.617c-9.797,7.968-25.719,15.864-50.452,16.111
					c-10.399,0.104-19.536-6.932-22.275-16.964l-23.318-85.391L2662.984,754.337z"/>
				
					<linearGradient id="SVGID_00000018217243538349308570000016461381586492486788_" gradientUnits="userSpaceOnUse" x1="-608.0033" y1="780.946" x2="-949.8162" y2="1056.9878" gradientTransform="matrix(-1 0 0 1 1641.5186 0)">
					<stop  offset="0" style="stop-color:#FEBBBA"/>
					<stop  offset="1" style="stop-color:#FF928E"/>
				</linearGradient>
				<path style="fill:url(#SVGID_00000018217243538349308570000016461381586492486788_);" d="M2600.411,893.422
					c0,0-104.105,190.225-292.146,37.021l-21.428,33.952c0,0,137.683,212.675,307.417,65.078L2600.411,893.422z"/>
				
					<linearGradient id="SVGID_00000102518290069726572960000013573784240038413184_" gradientUnits="userSpaceOnUse" x1="-520.8029" y1="888.9232" x2="-862.615" y2="1164.9642" gradientTransform="matrix(-1 0 0 1 1641.5186 0)">
					<stop  offset="0" style="stop-color:#FEBBBA"/>
					<stop  offset="1" style="stop-color:#FF928E"/>
				</linearGradient>
				<path style="fill:url(#SVGID_00000102518290069726572960000013573784240038413184_);" d="M2164.139,959.84
					c2.314-7.692,8-13.914,15.453-16.911l72.737-29.251c0,0,1.098-9.328-15.368-15.668c-16.468-6.339-12.617-24.781-12.617-24.781
					s22.496,10.262,55.431,26.539c18.834,9.308,29.402,25.742,35.007,38.113l-18.724,24.624
					c-44.83,13.467-90.192,16.042-135.941,10.7L2164.139,959.84z"/>
				
					<linearGradient id="SVGID_00000120553204029996470860000006959732014338899614_" gradientUnits="userSpaceOnUse" x1="-1386.6451" y1="1058.9941" x2="-1098.0486" y2="1058.9941" gradientTransform="matrix(-1 0 0 1 1641.5186 0)">
					<stop  offset="0" style="stop-color:#FEBBBA"/>
					<stop  offset="1" style="stop-color:#FF928E"/>
				</linearGradient>
				<path style="fill:url(#SVGID_00000120553204029996470860000006959732014338899614_);" d="M2869.524,886.681
					c0,0,176.65,91.487,157.135,264.074c-19.516,172.586-287.091,14.146-287.091,14.146l6.489-41.534
					c0,0,163.703,47.504,190.969,6.646c19.999-29.968-47.046-100.18-84.206-135.478c-13.626-12.944-17.545-33.083-9.719-50.17
					L2869.524,886.681z"/>
				<g>
					
						<linearGradient id="SVGID_00000106840882947525929100000004783214623055355313_" gradientUnits="userSpaceOnUse" x1="3478.5715" y1="469.6774" x2="3124.196" y2="717.7401">
						<stop  offset="0" style="stop-color:#09005D"/>
						<stop  offset="1" style="stop-color:#1A0F91"/>
					</linearGradient>
					<path style="fill:url(#SVGID_00000106840882947525929100000004783214623055355313_);" d="M2763.654,1223.394l-74.08-258.705
						c-0.841-2.937-3.346-5.079-6.38-5.433c-13.422-1.566-52.314-5.962-97.219-9.76c-54.089-4.575-116.902-8.282-154.438-5.129
						c-5.336,0.448-8.561,6.092-6.188,10.893c21.345,43.184,109.145,218.843,153.112,276.387c1.457,1.906,3.709,3.021,6.108,2.998
						l171.879-1.599C2761.448,1233,2765.031,1228.202,2763.654,1223.394z"/>
					<path style="fill:#7D97F4;" d="M2578.29,927.067l-53.71-8.949c-2.86-0.477-5.203,2.257-4.294,5.01l5.317,16.111
						c0.463,1.403,1.686,2.417,3.15,2.613l51.684,6.904c2.674,0.357,4.879-2.072,4.264-4.699l-3.291-14.066
						C2581.055,928.477,2579.825,927.323,2578.29,927.067z"/>
					<path style="fill:#7D97F4;" d="M2618.506,972.537l-4.425-23.047c-0.444-2.312-2.352-4.058-4.694-4.296l-108.481-11.008
						c-3.651-0.37-6.575,2.976-5.718,6.544l6.897,28.719c0.552,2.298,2.552,3.958,4.912,4.076l106.008,5.336
						C2616.457,979.036,2619.158,975.93,2618.506,972.537z"/>
					
						<linearGradient id="SVGID_00000080192166281796931960000018053724314470815628_" gradientUnits="userSpaceOnUse" x1="-1111.3832" y1="1117.0292" x2="-1012.689" y2="1117.0292" gradientTransform="matrix(-1 0 0 1 1641.5186 0)">
						<stop  offset="0" style="stop-color:#FEBBBA"/>
						<stop  offset="1" style="stop-color:#FF928E"/>
					</linearGradient>
					<path style="fill:url(#SVGID_00000080192166281796931960000018053724314470815628_);" d="M2745.756,1160.891
						c0,0,10.319-42.433,6.157-57.488c-4.163-15.054-12.228-34.41-39.111-30.109c-26.883,4.301-58.594,15.626-58.594,15.626
						s1.602,19.609,22.033,13.283l-12.669,9.803c0,0,1.811,15.701,19.069,7.313l-11.784,13.002c0,0,7.411,12.895,20.108,4.624
						C2703.662,1128.673,2709.748,1166,2745.756,1160.891z"/>
				</g>
				<g>
					
						<linearGradient id="SVGID_00000150789086902125063270000013382896856452830123_" gradientUnits="userSpaceOnUse" x1="2737.644" y1="-1263.9276" x2="2922.0955" y2="-1138.6399" gradientTransform="matrix(0.723 -0.6909 0.6909 0.723 1423.1436 3572.7656)">
						<stop  offset="0" style="stop-color:#FEBBBA"/>
						<stop  offset="1" style="stop-color:#FF928E"/>
					</linearGradient>
					<path style="fill:url(#SVGID_00000150789086902125063270000013382896856452830123_);" d="M2542.028,692.769
						c0,0-16.382,37.838,2.865,95.365c19.247,57.527,50.7,62.526,70.619,48.304c19.919-14.222,45.748-39.635,48.959-91.746
						C2667.683,692.582,2564.593,644.91,2542.028,692.769z"/>
					
						<linearGradient id="SVGID_00000045592871301167437850000004981067286013563536_" gradientUnits="userSpaceOnUse" x1="-990.1854" y1="652.5696" x2="-1157.6035" y2="371.5459" gradientTransform="matrix(-1 0 0 1 1641.5186 0)">
						<stop  offset="0" style="stop-color:#09005D"/>
						<stop  offset="1" style="stop-color:#1A0F91"/>
					</linearGradient>
					<path style="fill:url(#SVGID_00000045592871301167437850000004981067286013563536_);" d="M2625.601,741.303
						c0,0-34.759-77.858-86.89-29.357l-4.023,20.04c0,0-49.646-14.143-33.33-59.13s75.645-75.505,128.744-46.346
						c53.099,29.159,71.147,63.505,68.293,104.458c-2.854,40.953-33.548,26.939-33.548,26.939s-5.906-30.109-20.326-35.459
						s-14.111,17.441-14.111,17.441L2625.601,741.303z"/>
					
						<linearGradient id="SVGID_00000163758089260775618490000012456211299875944611_" gradientUnits="userSpaceOnUse" x1="2748.6985" y1="-1280.2021" x2="2933.1506" y2="-1154.9141" gradientTransform="matrix(0.723 -0.6909 0.6909 0.723 1423.1436 3572.7656)">
						<stop  offset="0" style="stop-color:#FEBBBA"/>
						<stop  offset="1" style="stop-color:#FF928E"/>
					</linearGradient>
					<path style="fill:url(#SVGID_00000163758089260775618490000012456211299875944611_);" d="M2637.554,742.254
						c0,0-18.103-39.918,7.254-41.361s15.04,38.48,9.987,53.047L2637.554,742.254z"/>
					
						<linearGradient id="SVGID_00000150818252552727655780000009411528520115574153_" gradientUnits="userSpaceOnUse" x1="-1141.8362" y1="742.9147" x2="-1309.2542" y2="461.8911" gradientTransform="matrix(-1 0 0 1 1641.5186 0)">
						<stop  offset="0" style="stop-color:#09005D"/>
						<stop  offset="1" style="stop-color:#1A0F91"/>
					</linearGradient>
					<path style="fill:url(#SVGID_00000150818252552727655780000009411528520115574153_);" d="M2651.948,655.366
						c-14.206-1.729-19.921-19.282-10.259-29.839c31.188-34.078,90.06-71.89,173.932-13.869
						c94.479,65.357,145.595,94.927,168.804,88.723c15.241-4.074,28.494,11.001,21.296,25.04
						c-5.322,10.38-16.157,21.221-36.178,31.099C2815.104,832.725,2735.273,665.51,2651.948,655.366z"/>
				</g>
			</g>
		</g>
		<g>
			<g>
				
					<linearGradient id="SVGID_00000093146842671523457400000005338895965252895653_" gradientUnits="userSpaceOnUse" x1="1506.9451" y1="124.4546" x2="335.084" y2="2214.541">
					<stop  offset="0" style="stop-color:#4F52FF"/>
					<stop  offset="1" style="stop-color:#4042E2"/>
				</linearGradient>
				
					<circle style="fill:url(#SVGID_00000093146842671523457400000005338895965252895653_);" cx="1011.557" cy="1008.009" r="390.65"/>
				<path style="fill:#BDD0FB;" d="M677.341,1171.738c-1.262,0-2.472-0.708-3.052-1.923
					c-24.045-50.487-36.237-104.653-36.237-160.996c0-140.612,77.606-268.202,202.536-332.981c1.645-0.855,3.692-0.214,4.549,1.442
					c0.857,1.655,0.211,3.692-1.444,4.55c-122.679,63.614-198.891,188.909-198.891,326.989c0,55.329,11.971,108.52,35.581,158.092
					c0.804,1.684,0.089,3.698-1.595,4.499C678.32,1171.632,677.826,1171.738,677.341,1171.738z"/>
				<path style="fill:#FFFFFF;" d="M816.896,1327.811c-0.61,0-1.226-0.165-1.78-0.509c-45.542-28.341-85.282-66.973-114.93-111.715
					c-1.028-1.554-0.603-3.649,0.949-4.677c1.552-1.033,3.652-0.606,4.68,0.949c29.114,43.94,68.143,81.877,112.867,109.711
					c1.582,0.986,2.067,3.067,1.081,4.649C819.124,1327.248,818.023,1327.811,816.896,1327.811z"/>
				<circle style="fill:#BDD0FB;" cx="1012.902" cy="1006.326" r="347.833"/>
			</g>
			<g>
				
					<linearGradient id="SVGID_00000067222161251725361010000014325444477964394399_" gradientUnits="userSpaceOnUse" x1="16747.9023" y1="-22570.6387" x2="16180.873" y2="-21922.6055" gradientTransform="matrix(-1 0 0 1 -3041.9072 0)">
					<stop  offset="0" style="stop-color:#FF928E"/>
					<stop  offset="1" style="stop-color:#FE7062"/>
				</linearGradient>
				<path style="fill:url(#SVGID_00000067222161251725361010000014325444477964394399_);" d="M1169.619,936.362
					c0,0-140.334-35.204-288.609-13.974c-41.718,5.973-78.669,30.246-101.182,65.872c-40.565,64.193-97.915,178.586-85.784,297.891
					l63.668,15.743c0,0,44.001-141.581,93.525-199.204c0,0,58.651,133.688,55.685,207.102c-0.084,2.075-0.217,4.102-0.402,6.076
					c-6.73,71.825,281.541,13.403,281.541,13.403L1169.619,936.362z"/>
				
					<linearGradient id="SVGID_00000181067916876893617040000016334748261963995524_" gradientUnits="userSpaceOnUse" x1="936.8508" y1="959.2014" x2="1057.1732" y2="782.2566">
					<stop  offset="0" style="stop-color:#FEBBBA"/>
					<stop  offset="1" style="stop-color:#FF928E"/>
				</linearGradient>
				<path style="fill:url(#SVGID_00000181067916876893617040000016334748261963995524_);" d="M1056.383,815.712l-6.406,99.541
					c-0.596,9.26-6.59,17.109-14.992,19.596c-19.354,5.73-55.904,12.636-91.729-1.799c-6.556-2.642-9.924-10.407-7.719-17.49
					l47.39-152.211L1056.383,815.712z"/>
				<g>
					
						<linearGradient id="SVGID_00000141444707314582990620000004525265168547968387_" gradientUnits="userSpaceOnUse" x1="991.564" y1="787.4158" x2="1092.675" y2="742.927">
						<stop  offset="0" style="stop-color:#FEBBBA"/>
						<stop  offset="1" style="stop-color:#FF928E"/>
					</linearGradient>
					<path style="fill:url(#SVGID_00000141444707314582990620000004525265168547968387_);" d="M1072.397,671.552
						c0,0,30.271,69.537,32.304,106.035c2.033,36.498,9.897,60.18-32.304,67.53c-42.201,7.35-77.752-13.673-97.012-50.029
						c0,0-30.176-56.021-23.407-78.963C958.748,693.183,1072.397,671.552,1072.397,671.552z"/>
					
						<linearGradient id="SVGID_00000078023826018383752500000011652627740729154195_" gradientUnits="userSpaceOnUse" x1="786.1851" y1="855.624" x2="1116.8177" y2="619.0243">
						<stop  offset="0" style="stop-color:#09005D"/>
						<stop  offset="1" style="stop-color:#1A0F91"/>
					</linearGradient>
					<path style="fill:url(#SVGID_00000078023826018383752500000011652627740729154195_);" d="M989.806,768.949h5.335
						c0,0-21.982-45.088-2.667-53.009c19.314-7.921,95.821-23.523,112.328-50.67c15.913-26.171,1.721-59.977-19.512-69.437
						c-1.343-0.599-2.927,0.034-3.614,1.334l-1.759,3.328c-1.204,2.279-4.571,1.934-5.287-0.542l0,0
						c-0.68-2.349-3.846-2.862-5.138-0.786c-5.053,8.118-18.735,21.319-55.432,28.092c-52.071,9.61-86.494,30.684-87.34,66.67
						c-0.054,2.28-2.49,3.536-4.438,2.35c-3.844-2.343-9.996-3.442-18.217,3.471c-14.297,12.022-8.447,43.208,22.896,68.862
						c1.489,1.219,1.477,3.544-0.136,4.595c-5.682,3.699-14.151,12.5,7.797,24.233c22.451,12.001,35.738,10.692,40.752,9.41
						c1.349-0.345,2.256-1.575,2.17-2.965l-1.97-31.891c-0.102-1.649,1.208-3.043,2.861-3.043H989.806z"/>
					
						<linearGradient id="SVGID_00000171711537292824505580000007938955275899356342_" gradientUnits="userSpaceOnUse" x1="981.8371" y1="765.3092" x2="1082.9482" y2="720.8203">
						<stop  offset="0" style="stop-color:#FEBBBA"/>
						<stop  offset="1" style="stop-color:#FF928E"/>
					</linearGradient>
					<path style="fill:url(#SVGID_00000171711537292824505580000007938955275899356342_);" d="M991.117,775.621
						c0,0-11.548-44.419-31.464-31.965c-19.915,12.454,10.335,49.77,26.346,51.432L991.117,775.621z"/>
				</g>
				<g>
					
						<linearGradient id="SVGID_00000002362328719556294850000017906343480675071365_" gradientUnits="userSpaceOnUse" x1="16597.7207" y1="-22702.0566" x2="16030.6943" y2="-22054.0234" gradientTransform="matrix(-1 0 0 1 -3041.9072 0)">
						<stop  offset="0" style="stop-color:#FF928E"/>
						<stop  offset="1" style="stop-color:#FE7062"/>
					</linearGradient>
					<path style="fill:url(#SVGID_00000002362328719556294850000017906343480675071365_);" d="M1168.749,1222.568
						c6.216-43.896-39.241-108.422-58.045-132.906c-5.378-7.004-8.385-15.567-8.462-24.397
						c-0.55-62.167,25.554-102.093,67.377-128.902c0,0,151.798,176.849,113.146,312.877c-4.17,14.679-10.634,27.292-18.829,38.13
						C1257.845,1236.114,1198.604,1224.933,1168.749,1222.568z"/>
					
						<linearGradient id="SVGID_00000020399416476486359590000011963693890378443175_" gradientUnits="userSpaceOnUse" x1="3224.9609" y1="-1234.5773" x2="2657.9314" y2="-586.5428">
						<stop  offset="0" style="stop-color:#FF928E"/>
						<stop  offset="1" style="stop-color:#FE7062"/>
					</linearGradient>
					<path style="fill:url(#SVGID_00000020399416476486359590000011963693890378443175_);" d="M1165.918,1205.589l5.784-0.66
						c-4.902-43.047-42.677-96.19-58.689-117.041l-4.618,3.546C1124.112,1111.9,1161.178,1163.99,1165.918,1205.589z"/>
					
						<linearGradient id="SVGID_00000116221906834789411610000000312480345855511990_" gradientUnits="userSpaceOnUse" x1="-4226.6177" y1="1172.2452" x2="-4115.9678" y2="1463.4294" gradientTransform="matrix(-1 0 0 1 -3041.9072 0)">
						<stop  offset="0" style="stop-color:#FEBBBA"/>
						<stop  offset="1" style="stop-color:#FF928E"/>
					</linearGradient>
					<path style="fill:url(#SVGID_00000116221906834789411610000000312480345855511990_);" d="M1167.557,1228.647
						c0.53-1.971,0.899-4.01,1.191-6.078c29.855,2.365,89.097,13.546,95.188,64.8c-67.742,89.593-254.46,57.269-254.46,57.269
						v-34.862C1009.477,1309.775,1152.877,1283.135,1167.557,1228.647z"/>
				</g>
				
					<linearGradient id="SVGID_00000150078483562797001560000002607488088777938582_" gradientUnits="userSpaceOnUse" x1="-4089.3313" y1="1120.0762" x2="-3978.6814" y2="1411.2601" gradientTransform="matrix(-1 0 0 1 -3041.9072 0)">
					<stop  offset="0" style="stop-color:#FEBBBA"/>
					<stop  offset="1" style="stop-color:#FF928E"/>
				</linearGradient>
				<path style="fill:url(#SVGID_00000150078483562797001560000002607488088777938582_);" d="M1027.427,1335.014
					c0,0-27.569-65.054-76.147-41.978c-48.578,23.075-44.76,38.175-44.76,38.175L1027.427,1335.014z"/>
				
					<linearGradient id="SVGID_00000033351668877187198010000012197180896252557710_" gradientUnits="userSpaceOnUse" x1="-3849.1841" y1="1225.812" x2="-3906.4502" y2="1299.5785" gradientTransform="matrix(-1 0 0 1 -3041.9072 0)">
					<stop  offset="0" style="stop-color:#09005D"/>
					<stop  offset="1" style="stop-color:#1A0F91"/>
				</linearGradient>
				<path style="fill:url(#SVGID_00000033351668877187198010000012197180896252557710_);" d="M1033.62,1348.511L1033.62,1348.511
					c-0.386,4.922-4.58,8.667-9.515,8.495l-251.729-8.782c-3.913-0.137-7.313-2.729-8.48-6.465l-7.306-23.381
					c-1.795-5.744,2.304-11.64,8.312-11.959l91.797-4.876c0.833-0.044,1.669,0.024,2.483,0.205l167.239,37.038
					C1030.908,1339.781,1033.979,1343.928,1033.62,1348.511z"/>
				
					<linearGradient id="SVGID_00000009560060191849534370000014578009304901538468_" gradientUnits="userSpaceOnUse" x1="-3806.397" y1="1259.0284" x2="-3863.6628" y2="1332.7947" gradientTransform="matrix(-1 0 0 1 -3041.9072 0)">
					<stop  offset="0" style="stop-color:#09005D"/>
					<stop  offset="1" style="stop-color:#1A0F91"/>
				</linearGradient>
				<polygon style="fill:url(#SVGID_00000009560060191849534370000014578009304901538468_);" points="864.882,1339.325 
					857.954,1307.049 763.661,1311.549 769.865,1338.328 				"/>
				
					<linearGradient id="SVGID_00000182501040184459577950000014725558586997701047_" gradientUnits="userSpaceOnUse" x1="436.9174" y1="739.9028" x2="735.6049" y2="1149.9653">
					<stop  offset="0" style="stop-color:#09005D"/>
					<stop  offset="1" style="stop-color:#1A0F91"/>
				</linearGradient>
				<path style="fill:url(#SVGID_00000182501040184459577950000014725558586997701047_);" d="M913.221,991.92
					c5.337,43.606,29.344,220.774,36.216,271.394c0.966,7.12-4.688,13.381-11.87,13.175l-407.252-11.654
					c-5.329-0.153-9.874-3.906-11.029-9.111l-63.352-285.303c-1.675-7.543,4.329-14.594,12.043-14.142l434.374,25.442
					C907.966,982.049,912.538,986.336,913.221,991.92z"/>
				
					<linearGradient id="SVGID_00000045617270153411141460000008703283428580549291_" gradientUnits="userSpaceOnUse" x1="-3799.2891" y1="1111.2871" x2="-3741.0522" y2="1469.4425" gradientTransform="matrix(-1 0 0 1 -3041.9072 0)">
					<stop  offset="0" style="stop-color:#09005D"/>
					<stop  offset="1" style="stop-color:#1A0F91"/>
				</linearGradient>
				<path style="fill:url(#SVGID_00000045617270153411141460000008703283428580549291_);" d="M749.521,1170.835l60.19,170.836
					l-139.956,2.967l-11.653-172.777c-0.547-8.108,6.178-14.839,14.286-14.301l65.36,4.34
					C743.105,1162.256,747.737,1165.77,749.521,1170.835z"/>
				
					<linearGradient id="SVGID_00000106860610121668561600000003220622797654010779_" gradientUnits="userSpaceOnUse" x1="-3825.5073" y1="1319.6234" x2="-3653.7092" y2="1432.2142" gradientTransform="matrix(-1 0 0 1 -3041.9072 0)">
					<stop  offset="0" style="stop-color:#09005D"/>
					<stop  offset="1" style="stop-color:#1A0F91"/>
				</linearGradient>
				<path style="fill:url(#SVGID_00000106860610121668561600000003220622797654010779_);" d="M866.451,1344.105L866.451,1344.105
					c1.542,4.701-1.959,9.535-6.907,9.535H640.365c-4.014,0-7.269-3.254-7.269-7.269v-9.4c0-4.137,3.448-7.44,7.581-7.262
					l219.178,9.401C862.88,1339.239,865.507,1341.229,866.451,1344.105z"/>
			</g>
		</g>
	</g>
</g>
</svg>
