<?xml version="1.0" encoding="utf-8"?>
<!-- Generator: Adobe Illustrator 24.3.0, SVG Export Plug-In . SVG Version: 6.00 Build 0)  -->
<svg version="1.1" id="Layer_1" xmlns="http://www.w3.org/2000/svg" xmlns:xlink="http://www.w3.org/1999/xlink" x="0px" y="0px"
	 viewBox="0 0 1000 800" style="enable-background:new 0 0 1000 800;" xml:space="preserve">
<style type="text/css">
	.st0{fill:#F7F7F7;}
	.st1{fill:#587BC9;}
	.st2{fill:#556362;}
	.st3{fill:#3B455A;}
	.st4{fill:#A0675C;}
	.st5{fill:#E3E3E3;}
	.st6{fill:#0073CF;}
	.st7{fill:#FFFFFF;}
	.st8{fill:#D7E8F4;}
	.st9{fill:#7DB5DB;}
	.st10{opacity:0.36;}
	.st11{fill:#40495F;}
	.st12{fill:#BCBEC0;}
	.st13{fill:#EAC2A7;}
	.st14{fill:#5A5751;}
	.st15{fill:#323643;}
</style>
<g id="Shadow">
	<g>
		<path class="st0" d="M457,611c-27.1,0.1-54.2,0.9-81.3,4.6c-10.2,1.4-20.2,4.5-30.4,5.7c-20.4,2.5-40.5,7.1-61,9.3
			c-16.5,1.7-33.1,2.7-49.5,4.9c-15.4,2.1-32.5,1.6-47.8-1.8c-11.3-2.5-22.7-3.9-33.9-8c-12.5-4.5-26-7.7-39-7.6
			c-18.5,0.2-36.6,0.2-54.3,8.2c-6.2,2.8-13.8,7.4-18.6,13.3c-10.8,13.4-12.3,47-1.5,60.9c18.2,23.5,57,32.7,82.5,33.1
			c27.9,0.5,55.1-2.1,83.1-3.6c26-1.4,51.9-3.4,78-3.3c53.2,0.1,106.4,0,159.5-4.4c49.9-4.1,99.9-2.7,149.9-2.7
			c51.3,0,102.2,0.5,153.1,8.9c22.2,3.7,44.8,5,67.1,7.5c20,2.3,39.1,0,59-2.2c16.7-1.8,33.3-7.1,48.5-16.1
			c12-7.1,33.4-29.2,37.1-46.2c10.3-47.6-145.5-46.4-169.4-46.3c-26.8,0.1-53.7,1.2-80.5-0.1c-11.2-0.5-22.3-3.3-33.3-6.2
			c-10.9-3-22-2.2-33-3.5c-46.2-5.2-92.6-4.4-139-4.4C487.2,611.1,472.1,611,457,611z"/>
	</g>
</g>
<g>
	<g>
		<polygon class="st1" points="894.9,433.7 897.6,496.9 889.6,604.4 877.6,605.3 863.1,507.6 843,425 		"/>
		<polygon class="st2" points="878.1,610.3 891.5,615.8 897.5,608.9 890.5,602.9 877.6,603.8 		"/>
	</g>
	<g>
		<polygon class="st1" points="810.2,411.3 807.6,459.1 815.4,601.2 827.4,601.8 845.3,508.6 861.1,406.4 		"/>
		<polygon class="st2" points="827,606.8 813.8,612.7 807.6,605.9 814.4,599.7 827.4,600.4 		"/>
	</g>
	<g>
		<path class="st3" d="M898,274.5l-36.2-10.2c0,0-20.9-1.3-43,45c-12.3,25.8-21.9,68-28,100.5c0.1,4.8,1.7,26,23.7,26.1
			c37.7,0.3,58.2-2.3,73.7,3.3c13.1,5.3,15.1-13.7,16.1-28.2l2.1-45.2L898,274.5z"/>
	</g>
	<g>
		<path class="st4" d="M898.6,227.5c-8.9-3.6-18.2-7.1-27.8-6.8c-2.1,0.1-4.4,0.4-5.8,2c-0.5,0.6-0.9,1.4-1.2,2.1
			c-3.8,8.3-9,20.7-4.6,29.7c0.8,1.7,2.1,3.2,3.5,4.4c1.9,1.7,4.1,3,6.4,3.9c-0.9,2.1-1.9,4.1-3.2,6c1.6,3.6,11.4,5.6,13.8,2.9
			c0.6-2.6,1.1-5.3,1.7-7.9c1.3-0.3,2.6-0.7,3.8-1.2c4.7-2.1,8.2-5.8,10.6-10.3c2.6-4.9,6-9.3,8.5-14.3c0.9-1.8,1.7-3.9,1-5.8
			c-0.8-2-3-3-5-3.9C899.8,227.9,899.2,227.7,898.6,227.5z"/>
		<path class="st3" d="M866.9,227.2c5.1-2.2,12.2-2.3,16.5-1.2c12.9,3.2,16,13.5,14.7,25.7c4.4-4,12.1-8.6,13.5-14.4
			c1.1-4.8,1.6-11.4-0.4-16c-1.9-4.3-8-7.5-11.4-10.4c-3.3-2.7-6.5-5.5-9.8-8.2c-0.7-0.6-1.4-1.1-2.2-1.4c-1-0.3-2.1-0.3-3.1-0.2
			c-8.9,0.8-17.8,1.5-26.8,2.3c-1.7,0.1-3.7,0.4-4.6,1.9c-0.5,0.9-0.5,2-0.4,3.1c0.2,4.6,1.3,9.4,1,14c0.1,2.7-0.6,16.3,4.3,15.6
			c1.7-2,2.4-4.7,3.9-6.9C863.1,229.3,864.8,228.1,866.9,227.2z"/>
	</g>
	<polygon class="st3" points="861.8,264.3 847.5,266.2 789,309.8 783.1,326.5 800.2,369.8 809.1,356.5 803.9,325.8 821.8,317.2 
		851.2,272.9 	"/>
	<polygon class="st3" points="889.7,276.3 919.6,253.3 926.2,178.1 938.1,175.1 940.5,252.9 932.7,270.8 897.7,305.2 	"/>
	<polygon class="st4" points="935.6,175.8 936.7,169 930.7,157.3 924.5,161.2 926.5,171 923.7,173.7 926.2,178.1 	"/>
</g>
<rect x="134.7" y="167.3" class="st5" width="704.3" height="444.3"/>
<rect x="134.7" y="132.7" class="st3" width="704.3" height="26.7"/>
<rect x="134.7" y="159.4" class="st6" width="704.3" height="35"/>
<rect x="207.6" y="172.2" class="st7" width="598.9" height="14.9"/>
<g>
	<path class="st0" d="M164.2,144.9c0,2.4-2,4.4-4.5,4.4c-2.5,0-4.5-2-4.5-4.4s2-4.4,4.5-4.4C162.2,140.5,164.2,142.5,164.2,144.9z"
		/>
	<path class="st8" d="M177.2,144.9c0,2.4-2,4.4-4.5,4.4c-2.5,0-4.5-2-4.5-4.4s2-4.4,4.5-4.4C175.2,140.5,177.2,142.5,177.2,144.9z"
		/>
	<path class="st9" d="M190.3,144.9c0,2.4-2,4.4-4.5,4.4s-4.5-2-4.5-4.4s2-4.4,4.5-4.4C188.3,140.5,190.3,142.5,190.3,144.9z"/>
</g>
<g class="st10">
	<polygon class="st7" points="183.3,172.5 183.3,186.8 188.5,179.7 	"/>
	<polygon class="st7" points="162.3,186.8 162.3,172.5 157.1,179.7 	"/>
</g>
<g>
	<g id="XMLID_295_">
		<polygon class="st3" points="118.9,656 118.1,663.4 132.3,672.5 140.5,665.9 133.9,657.6 119.8,648.5 		"/>
		<polygon class="st3" points="152.8,654.2 152,661.6 166.1,670.7 174.4,664 167.7,655.8 153.6,646.7 		"/>
		<g id="XMLID_297_">
			<g id="XMLID_306_">
				<polygon class="st11" points="92.4,511.7 107.5,578.5 116.7,657.2 134,655.6 141,464.5 94.8,465.4 				"/>
			</g>
			<g id="XMLID_304_">
				<g id="XMLID_305_">
					<polygon class="st11" points="181,507.6 182.9,572.5 170,655.6 152,653.7 149.5,567.8 136.7,508.9 132.4,470.3 170.9,465.8 
											"/>
				</g>
			</g>
			<g id="XMLID_303_">
				<polygon class="st12" points="150.5,333 109,332 85,376.8 93.5,418.7 95,468.8 154.2,469.6 173.7,466.5 168.5,412.9 
					171.5,341.3 				"/>
			</g>
			<g id="XMLID_302_">
				<polygon class="st13" points="105,439.6 104.8,446.6 117.2,451.1 124.3,445.7 124.3,437.6 117.4,437.2 117.2,435.4 114.9,434 
									"/>
			</g>
			<g id="XMLID_301_">
				<polygon class="st12" points="107.6,335.1 61.7,388 59.5,411.1 104.8,446.9 112.9,435.1 83.6,403.8 112,376 				"/>
			</g>
			<g id="XMLID_300_">
				<polygon class="st12" points="152,360.1 173.6,403.3 196.9,408 243.6,400.8 237.9,386.2 195.1,386.2 170.9,341.3 				"/>
			</g>
			<g id="XMLID_298_">
				<g id="XMLID_299_">
					<path class="st13" d="M147.9,298.2c-6.3-18.2-30.3-11.4-35.2,4.8c-3.2,10.6,4.9,24.3,15.9,27.3c0,0.4,0.1,0.8,0.1,1.1
						c0,1.7,0.2,3.4,0.5,5.1c0.1,0.6,9.7-1.2,10.7-1.4c0.4-0.1,0.8-0.2,1-0.5c0.4-0.6-0.2-2.4-0.3-3c-0.1-0.8-0.2-1.6-0.2-2.4
						c5.4-2.6,8.8-8.2,9.8-14C151,309.6,149.8,303.7,147.9,298.2z"/>
				</g>
			</g>
		</g>
		<g id="XMLID_296_">
			<polygon class="st7" points="121.3,332.8 134.2,351 140.2,350.5 150.3,332 			"/>
		</g>
		<path class="st3" d="M176.3,285.3c0.7-1.2,1.5-2.4,2.4-3.5c1.9-2.4,4.2-4.5,5.7-7.2c1.5-2.7,2-6.3,0.1-8.7
			c-1.2-1.6-3.2-2.3-5.1-2.8c-6.3-1.7-13.1-1.7-19.4,0c-6,1.7-11.4,4.3-17.5,2.2c-5.8-2-9.9-1.1-15.8,1.2
			c-6.4,2.4-15.1,3.2-20.9,6.5c-2.4,1.4-4.3,3.6-5.8,5.9c-5.1,8.2-4.9,19.4,0.5,27.5c1.2,1.8,2.6,3.4,4.1,5
			c3.1,3.2,6.8,7.3,11.1,8.4c0-3.8-3.6-15.5-0.8-18.6c4.5-5,14.8-3.5,20.5-2.4c6.2,1.2,11.8,5.5,18,6.3c4.4,0.6,10-1.7,13.7-4
			C171.7,298.1,173.7,289.8,176.3,285.3z"/>
	</g>
	<g>
		<polygon class="st3" points="140.9,460.3 107.4,429.2 202.1,399.1 238.6,430.5 		"/>
		<polygon class="st8" points="140.9,460.3 238.6,430.5 238.6,352.7 140.9,382.5 		"/>
	</g>
</g>
<g>
	<polygon class="st11" points="377.4,334.4 403.2,366.6 437.2,346.9 450.3,357.5 423.4,391.5 401.7,409.1 370.4,368.9 	"/>
	<g>
		<g>
			<g>
				<polygon class="st14" points="404.5,438.6 405.6,534.9 395.4,658.9 381.4,658.9 364.7,544.5 345.6,429.9 				"/>
				<polygon class="st3" points="381.5,664.8 396.6,672.3 404.1,664.8 396.6,657.2 381.5,657.2 				"/>
			</g>
			<g>
				<polygon class="st14" points="308.8,438.6 308.6,494.3 318,658.9 331.9,658.9 355.3,549.7 367.7,429.9 				"/>
				<polygon class="st3" points="331.8,664.8 316.7,672.3 309.2,664.8 316.7,657.2 331.8,657.2 				"/>
			</g>
		</g>
		<path class="st11" d="M294.3,472.1c-0.3,8.8-0.1,20.7,3.6,21.1c0.7,0.1,1.4-0.2,2-0.5c6.5-3.1,11.1-7.6,17.5-10.6
			c6.7-3.2,14.3-4.9,21.7-6c11.1-1.8,22.3-2.8,33.5-2.9c9.6-0.1,19.5,4.3,28.6,6.7c3.5,0.9,6.3,3.5,9.2,5.5c4.3,2.9,6.2,4.1,5.6-1.9
			c-1-9.8-1.9-19.6-3.1-29.4c-2.4-19.5-5.7-39-11.2-57.9c-2.1-7.2-4.6-14.3-7-21.5c-3-8.7-6-17.3-8.9-26
			c-3.7-10.8-9.9-18.4-20.9-22.1c-9.4-3.3-21.2-4.1-30.4,0.4c-10.2,5.1-15.1,22.3-20,31.5c-4.3,8.1-9.8,30.1-11.5,38.8
			c-2,10.5-3.8,20.9-5.2,31.3c-1.6,11.5-2.7,23-3,34.5C294.7,464.4,294.5,467.9,294.3,472.1z"/>
		<path class="st7" d="M344.8,328.4l18.9,0.2c0,0,20.2,70.7,21,82.9c0.7,12,5.8,60.5,5.8,60.5s-20.9,0.5-45,3.4
			c-23.5,5-25.5,2.1-25.5,2.1s12.7-51,13.1-65.7c0.4-15,2.3-64.5,2.3-64.5L344.8,328.4z"/>
		<g>
			<path class="st13" d="M356.2,328.8c-0.2,0.2-0.5,0.3-0.8,0.4c-0.6,0.2-1.2,0.1-1.8,0c-2.5-0.3-5-0.6-7.5-0.9
				c0.8-7.6-3.6-9.4-8-14.3c-4.4-5-3.1-11.7-2.8-17.8c0.1-1.7,0.2-3.4,0.9-5c1.3-2.7,4.2-4.2,7-5.1c7.3-2.3,15.6-1.7,22,2.4
				c1.7,1.1,3.3,2.5,4.2,4.3c1.4,2.8,1.1,6.1,0.7,9.2c-0.6,4.8-2,9.4-4.7,13.4c-2.5,3.7-7.3,5.5-7.8,10
				C357.4,326.8,357,328.1,356.2,328.8z"/>
			<g>
				<path class="st3" d="M369.9,296.6c-0.4,1.9-1.3,3.9-0.9,5.8c3-1,5-4.2,6.1-7.3c0.5-1.4,0.8-3,0.7-4.5c-0.1-1.5-0.8-3-2-3.9
					c-1.7-1.2-4.7-0.7-5.2,1.4C368.2,290.3,370.5,293.7,369.9,296.6z"/>
				<path class="st3" d="M386.1,279.8c-0.1-2.3-0.9-4.4-3-5.7c-1.8-1.2-3.8-2.2-4.9-4.1c-0.8-1.5-1-3.3-1.8-4.8
					c-1.5-2.7-4.8-3.5-7.6-4.4c-7.1-2.3-10.9-4.9-18.4-2c-5.3,2.1-12.2,2.3-17.2,5.4c-2.1,1.3-3.8,3.3-5.3,5.5
					c-5,7.8-6.2,18.8-2.9,27c0.7,1.8,1.7,3.5,2.6,5.1c2,3.2,4.1,7.2,7.6,8.7c0.2-1.5,1.3-2.4,1.7-3.8c0.3-1.1,0.2-2.2,0.1-3.3
					c-0.2-4.3-1.5-11.1,2.8-13.2c5.4-2.7,15.6-0.3,20.8,2c4.6,2,12.4,4.6,17.3,2.5C382.5,292.7,386.2,284.7,386.1,279.8z"/>
			</g>
		</g>
	</g>
</g>
<circle id="XMLID_294_" class="st6" cx="442.8" cy="516" r="162.4"/>
<path id="XMLID_280_" class="st7" d="M560.7,466.2c-6.4-15.2-15.7-28.9-27.4-40.7c-11.8-11.8-25.4-21-40.7-27.4
	c-15.8-6.7-32.5-10.1-49.8-10.1s-34,3.4-49.8,10.1c-15.2,6.4-28.9,15.7-40.7,27.4c-11.8,11.8-21,25.4-27.4,40.7
	c-6.7,15.8-10.1,32.5-10.1,49.8s3.4,34,10.1,49.8c6.4,15.2,15.7,28.9,27.4,40.7c11.8,11.8,25.4,21,40.7,27.4
	c15.8,6.7,32.5,10.1,49.8,10.1s34-3.4,49.8-10.1c15.2-6.4,28.9-15.7,40.7-27.4c11.8-11.8,21-25.4,27.4-40.7
	c6.7-15.8,10.1-32.5,10.1-49.8C570.8,498.7,567.4,482,560.7,466.2z M380.6,512c0-10,1.1-19.8,3.4-29.3h52.4v60.9h-51.9
	C381.9,533.2,380.6,522.7,380.6,512z M474.9,427.9c9.2,10.8,16.6,22.6,21.9,35c1,2.3,1.9,4.6,2.7,6.9h-50.3v-65.6
	C455.3,408.5,465.1,416.4,474.9,427.9z M436.4,405.4v64.4h-48.6c0.8-2.2,1.7-4.5,2.6-6.7c5.2-12.4,12.5-24.1,21.7-34.9
	C421.1,417.6,430.2,410,436.4,405.4z M436.4,556.4v69.1c-6.1-5.3-15-13.8-23.8-25.2c-9.3-12-16.7-24.7-22-37.8c-0.8-2-1.6-4-2.3-6.1
	H436.4z M449.2,627v-70.5h49.8c-0.7,2-1.4,3.9-2.2,5.8c-5.3,13.1-12.6,25.8-21.9,37.7C465.3,612.6,455.4,621.8,449.2,627z
	 M449.2,543.6v-60.9h54.1c2.3,9.5,3.4,19.3,3.4,29.3c0,10.6-1.3,21.2-3.8,31.5H449.2z M516.5,482.7H553c3.2,10.7,4.9,21.8,4.9,33.3
	c0,9.4-1.1,18.7-3.3,27.6h-38.5c2.3-10.4,3.5-20.9,3.5-31.5C519.6,502.1,518.5,492.2,516.5,482.7z M524.2,434.6
	c10.3,10.3,18.4,22.2,24.1,35.2h-35.2c-1.3-4-2.8-8-4.4-12c-5.8-13.6-13.8-26.5-23.9-38.3c-5.2-6.1-10.4-11.3-15.2-15.5
	C490.1,408.9,508.9,419.3,524.2,434.6z M361.4,434.6c15.9-15.9,35.5-26.5,56.9-31.1c-4.9,4.3-10.3,9.7-15.8,16
	c-10.1,11.8-18.2,24.7-23.9,38.3c-1.7,3.9-3.1,7.9-4.4,12h-36.9C343,456.9,351.1,444.9,361.4,434.6z M332.6,482.7h38.2
	c-2,9.5-3.1,19.3-3.1,29.3c0,10.6,1.2,21.2,3.5,31.5H331c-2.2-8.9-3.3-18.2-3.3-27.6C327.7,504.5,329.4,493.4,332.6,482.7z
	 M361.4,597.4c-11.8-11.8-20.7-25.7-26.4-40.9h39.7c1.2,3.7,2.5,7.3,3.9,10.9c5.7,14.2,13.8,28,23.8,40.9
	c6.6,8.4,13.1,15.4,18.7,20.8C398.6,624.8,377.9,613.9,361.4,597.4z M524.2,597.4c-16,16-35.9,26.7-57.5,31.2
	c5.5-5.3,11.9-12.1,18.2-20.3c10-12.9,18-26.7,23.8-40.9c1.5-3.6,2.8-7.2,3.9-10.9h38C544.9,571.6,536,585.6,524.2,597.4z"/>
<polygon class="st13" points="440.2,343.2 457.1,340.7 468.8,353.6 461.7,360 450.1,354.6 444.5,357.2 434.9,351.9 "/>
<g>
	<g id="XMLID_259_">
		<g id="XMLID_261_">
			<g id="XMLID_276_">
				<g id="XMLID_278_">
					<path class="st15" d="M726.2,649.2c1.3-1.4,2.8-2.2,4.5-1.9c1.6,0.3,3.1,1.4,3.8,2.8c0.5,1,0.6,2.1,0.6,3.2
						c0.5,5.7,0.4,19.2-7.2,21.2c-3.2,0.8-5.8-1.5-6.7-4.3C720,666,721.9,654,726.2,649.2z"/>
				</g>
				<g id="XMLID_277_">
					<path class="st13" d="M723.5,563.2l0.4,34.8c-0.5,15.5,2,31,1.5,46.5c-0.1,3.6-1,7.3-0.1,10.8c0.9,3.4,3.7,4.1,6.5,2.3
						c3.9-2.3,3.2-7.8,3.9-11.8c1.8-10.9,3.8-21.8,5.7-32.8c0.9-5.4-1-12.9-0.6-18.3c0,0,5.6-29.2,5.6-29.2L723.5,563.2z"/>
				</g>
			</g>
			<g id="XMLID_275_">
				<polygon class="st11" points="763.2,507 748.1,574.2 744.9,637.8 720.9,637.2 714.3,459.5 760.9,460.4 				"/>
			</g>
			<g id="XMLID_270_">
				<g id="XMLID_272_">
					<g id="XMLID_274_">
						<path class="st15" d="M691.8,648c1.3-1.3,2.9-2,4.6-1.7c1.6,0.4,3,1.5,3.6,3.1c0.4,1,0.5,2.2,0.5,3.3
							c0.2,5.7-0.4,19.3-8.1,20.8c-3.2,0.6-5.8-1.8-6.5-4.7C684.9,664.4,687.3,652.5,691.8,648z"/>
					</g>
					<g id="XMLID_273_">
						<path class="st13" d="M704.5,568.1l-2,34.7c-0.2,9.7-1.5,19.2-2.5,28.8c-0.9,8.9,0.5,18.2-4.1,26.3c-1.5,2.5-4.4,4.2-6.5,1.1
							c-1.6-2.4-0.6-6.3-1-9c-1.2-11-2.8-22-4.1-33c-0.6-5.4,1.6-12.8,1.4-18.2c0,0-4.2-29.4-4.2-29.4L704.5,568.1z"/>
					</g>
				</g>
				<g id="XMLID_271_">
					<polygon class="st11" points="674.1,502.9 672.2,568.2 682.4,634.2 706.8,634.9 705.8,563.5 718.7,504.2 723,465.4 
						684.3,460.8 					"/>
				</g>
			</g>
			<g id="XMLID_269_">
				<polygon class="st9" points="704.8,327.2 746.5,326.2 770.7,371.2 762.1,413.4 760.6,463.9 701,464.7 681.4,461.5 686.6,407.6 
					683.7,335.5 				"/>
			</g>
			<g id="XMLID_268_">
				<polygon class="st9" points="747.9,329.3 781.8,380.9 776.7,409.7 724.2,446 714.3,437.4 749.4,393 748.1,365 				"/>
			</g>
			<g id="XMLID_267_">
				<polygon class="st9" points="702.7,354.5 680.9,397.9 657.5,402.6 599.1,377.1 609.1,365.7 662.4,375.4 683.7,335.5 				"/>
			</g>
			<g id="XMLID_262_">
				<g id="XMLID_266_">
					<path class="st13" d="M707.4,292.2c6.3-18.3,30.5-11.4,35.4,4.9c3.2,10.6-5,24.4-16,27.5c0,0.4-0.1,0.8-0.1,1.1
						c0,1.7-0.2,3.4-0.5,5.1c-0.1,0.6-9.7-1.2-10.8-1.4c-0.4-0.1-0.8-0.2-1-0.5c-0.4-0.6,0.2-2.4,0.3-3.1c0.1-0.8,0.2-1.6,0.2-2.4
						c-5.4-2.7-8.9-8.3-9.8-14C704.3,303.6,705.5,297.7,707.4,292.2z"/>
				</g>
				<g id="XMLID_263_">
					<g id="XMLID_265_">
						<path class="st3" d="M723.1,275.7c1.3,1.3,1.8,3.1,2.2,4.9c0.2,1.1,0.4,2.1,0.2,3.2c-0.9,4.2-5,3.9-8.2,5.3
							c-3.9,1.7-7.3,4.7-9.5,8.2c-3.4,5.5-1.9,12.5-0.5,18.6c0.5,2.1,1.5,5.3-0.2,7.2c-1.7,1.9-5.6,1.6-7.6,0.6
							c-1.8-0.9-3.3-2.6-5.4-2.9c-2.1-0.4-5,0.6-6-1.4c-0.3-0.5-0.3-1.2-0.7-1.7c-1.2-1.7-4.1,0.3-5.8-0.9c-1-0.7-1-2.3-0.7-3.5
							s0.9-2.5,0.7-3.7c-0.2-1.1-1-1.9-1.5-2.9c-1-1.9-0.6-4.5,0.8-6.1c2.6-3,7.7-2.5,10.5-5.3c1.5-1.5,2-3.6,2.6-5.7
							c0.5-2,1.2-4.2,2.8-5.6c1.9-1.7,4.7-1.4,6.7-3.4c1.1-1.2,1.9-2.7,3.1-3.8c1.7-1.4,4.9-2.4,7-3.1
							C717,272.5,720.7,273.2,723.1,275.7z"/>
					</g>
					<g id="XMLID_264_">
						<path class="st3" d="M738.4,304.9c0.1,6-2.9,12.5-0.1,17.8c2.8,5.4,9.8,6.3,15.7,6.6c1,0,13.5,1.1,13.6,0.9
							c0.9-4.2,1.9-8.5,4.1-12.2c2.2-3.7,5.9-6.7,10.1-7c-1.2-0.2-1.8-1.7-1.7-2.9c0.1-1.3,0.8-2.4,1.2-3.6c0.9-3,0-6.4-2.2-8.5
							c-4.4-4.1-12.5-2.4-16.3-7.2c-2.4-2.9-2.1-7.2-3.3-10.8c-2.4-7-10-8.4-15.7-11.6c-6-3.3-11.7-5.1-18.6-4
							c-8.6,1.4-15,10.2-11.7,18.4c4.3,10.6,21.3,9.7,24.5,20.4C738.3,302.5,738.4,303.7,738.4,304.9z"/>
					</g>
				</g>
			</g>
		</g>
		<g id="XMLID_260_">
			<polygon class="st0" points="734.2,326.9 721.2,345.3 715.1,344.8 705,326.2 			"/>
		</g>
	</g>
	<g>
		<g>
			<path class="st7" d="M668.5,465.1c-1.1,0-2.2-0.4-3-1.2L636.4,434l-18,23.1c-0.7,0.9-1.8,1.5-2.9,1.5c-1.8,0-3.6-1.2-4.2-3
				l-43.4-117c-0.6-1.5-0.2-3.1,0.9-4.2c0.7-0.9,1.7-1.4,2.9-1.4c0.5,0,1,0.1,1.5,0.3l115.8,46.3c1.6,0.6,2.6,1.9,2.8,3.5
				c0.2,1.5-0.5,3-1.8,4l-23.1,17.1l29.1,29.8c0.8,0.8,1.2,1.8,1.2,2.9c0,1.2-0.4,2.2-1.2,3l-24.4,23.8
				C670.7,464.7,669.6,465.1,668.5,465.1L668.5,465.1z M635.9,423.4c1.2,0,2.3,0.5,3.1,1.2l29.6,30.3L687,437l-29.5-30.3
				c-0.9-0.9-1.3-2-1.2-3.2c0.1-1.3,0.8-2.5,1.9-3.3l20.9-15.5l-100.1-40l37.5,101l16.4-20.9C633.6,423.9,634.7,423.4,635.9,423.4z"
				/>
			<g>
				<path class="st7" d="M697.2,432.8l-10.7-10.9l-17-17.4l21.4-15.9c1.9-1.4,2.8-3.6,2.6-5.8c-0.3-2.2-1.8-4.1-4-5l-39.4-15.7
					l-34.6-13.8L588,337.3l-7.1-2.8l-7.1-2.8c-0.7-0.3-1.5-0.4-2.2-0.4c-1.7,0-3.2,0.7-4.2,2c-1.6,1.6-2.1,3.9-1.3,6.1l14,37.8
					l0.7,2l1,2.8l22.3,60.1l2.7,7.2l2.7,7.2c0.9,2.4,3.4,4.2,5.9,4.2c1.7,0,3.3-0.8,4.4-2.2l9.7-12.4l7.1-9l6.4,6.5l17.3,17.8l2,2
					l2,2c1.1,1.1,2.6,1.8,4.3,1.8c1.6,0,3.2-0.6,4.3-1.7l7-6.9l17.4-16.9c1.2-1.1,1.8-2.7,1.8-4.4
					C698.9,435.4,698.3,434,697.2,432.8z M694.6,438.8c-8.1,7.9-16.3,15.9-24.4,23.8c-0.5,0.5-1.1,0.7-1.7,0.7
					c-0.6,0-1.2-0.2-1.6-0.7c-1.3-1.4-2.7-2.7-4-4.1c-8.9-9.1-17.8-18.2-26.7-27.3c-6.4,8.2-12.9,16.5-19.3,24.7
					c-0.4,0.5-0.9,0.7-1.5,0.7c-1,0-2.1-0.8-2.5-1.8c-1.8-4.8-3.6-9.6-5.3-14.4c-7.8-20.9-15.6-41.9-23.3-62.8
					c-4.9-13.3-9.8-26.5-14.8-39.8c-0.4-1-0.1-1.8,0.5-2.3c0.3-0.5,0.9-0.8,1.5-0.8c0.3,0,0.6,0.1,0.9,0.2c4.7,1.9,9.5,3.8,14.2,5.7
					c20.7,8.3,41.5,16.6,62.2,24.9c13.1,5.2,26.3,10.5,39.4,15.7c1.9,0.8,2.3,3,0.6,4.3c-8.3,6.1-16.5,12.3-24.8,18.4
					c0.7,0.7,1.4,1.4,2.1,2.1c9.5,9.7,19,19.5,28.5,29.2C695.5,436.3,695.5,437.9,694.6,438.8z"/>
				<path class="st7" d="M658.8,405.5c-1.2-1.2-0.8-2.8,0.5-3.7c7.9-5.8,15.7-11.7,23.6-17.5c-3.4-1.3-6.7-2.7-10.1-4
					c-20.7-8.3-41.5-16.6-62.2-24.9c-11.6-4.6-23.1-9.3-34.7-13.9c1.2,3.2,2.4,6.4,3.6,9.6c7.8,20.9,15.6,41.9,23.3,62.8
					c4.4,11.9,8.8,23.8,13.2,35.6c6.1-7.9,12.3-15.7,18.4-23.6c0.4-0.5,1-0.7,1.6-0.7c0.7,0,1.3,0.2,1.7,0.7c1.3,1.4,2.7,2.7,4,4.1
					c9,9.2,17.9,18.4,26.9,27.6c7-6.8,14-13.7,21-20.5c-0.8-0.8-1.5-1.6-2.3-2.4C677.8,424.9,668.3,415.2,658.8,405.5z M668.6,452.3
					l-10.9-11.1l-13.4-13.8l-2-2l-2-2c-1.1-1.1-2.7-1.8-4.4-1.8c-1.8,0-3.5,0.8-4.5,2.1l-7.4,9.4l-7,8.9l-4.3-11.6l-6.6-17.8
					l-1.1-2.9l-22.2-59.9l-0.7-1.8l19,7.6l7.9,3.2l31.1,12.4l31.1,12.4l3.9,1.6l-6.5,4.8l-11.8,8.8c-1.5,1.1-2.5,2.8-2.6,4.6
					c-0.1,1.7,0.5,3.4,1.7,4.7l13.4,13.7l14.8,15.2L668.6,452.3z"/>
			</g>
		</g>
		<polygon class="st3" points="571.8,337.3 615.2,454.3 636,427.6 668.5,460.9 680.7,449 692.9,437.1 660.4,403.8 687.6,383.6 		"/>
	</g>
	<g id="XMLID_258_">
		<polygon class="st13" points="702.8,442 703,449 690.5,453.5 683.4,448.1 683.4,439.9 690.3,439.5 690.5,437.7 692.8,436.2 		"/>
	</g>
</g>
<g>
	<g id="XMLID_257_">
		<polygon class="st13" points="336.1,445.2 331.7,450.8 339,461.8 348,461.7 352.9,455.1 347.5,450.7 348.4,449.1 347.5,446.6 		
			"/>
	</g>
	<g id="XMLID_256_">
		<polygon class="st11" points="329.2,330.9 294.2,352.3 274.8,388.7 279.9,417.4 332.4,453.8 342.3,445.2 307.2,400.8 308.6,372.8 
					"/>
	</g>
</g>
</svg>
